<svg width="550.144970703125px" height="156.8076171875px" xmlns="http://www.w3.org/2000/svg" viewBox="-25.072485351562477 -3.40380859375 550.144970703125 156.8076171875" style="background: rgba(0, 0, 0, 0);" preserveAspectRatio="xMidYMid"><defs><filter id="editing-raise" x="-100%" y="-100%" width="300%" height="300%"><feFlood flood-color="#ccc" result="flood-surface"></feFlood><feFlood flood-color="#777" result="flood-extrude"></feFlood><feMorphology operator="erode" in="SourceAlpha" radius="1" result="erode"></feMorphology><feConvolveMatrix in="erode" result="shadow" order="11,8" divisor="1" kernelMatrix="0 0 0 1 1 1 1 1 0 0 0 0 0 1 0 0 0 0 0 1 0 0 0 0 1 0 0 0 0 0 1 0 0 0 0 1 0 0 0 0 0 1 0 0 0 0 1 0 0 0 0 0 1 0 0 0 0 0 1 0 0 0 1 0 0 0 0 0 0 1 1 0 1 1 0 0 0 0 0 0 0 0 1 0 0 0 0 0"></feConvolveMatrix><feOffset dx="0" dy="4" in="shadow" result="offset"></feOffset><feGaussianBlur in="offset" stdDeviation="0.2" result="blur"></feGaussianBlur><feComposite operator="in" in="flood-extrude" in2="blur" result="extrude"></feComposite><feMorphology operator="erode" in="SourceAlpha" radius="1" result="erode2"></feMorphology><feConvolveMatrix in="erode2" result="out" order="4,4" divisor="1" kernelMatrix="0 1 1 0 1 0 0 1 1 0 0 1 0 1 1 0 "></feConvolveMatrix><feComposite operator="in" in="flood-surface" in2="out" result="text"></feComposite><feMerge><feMergeNode in="extrude"></feMergeNode><feMergeNode in="text"></feMergeNode></feMerge></filter></defs><g filter="url(#editing-raise)"><g transform="translate(55.804996967315674, 118.46500015258789)"><path d="M6.01-40.34L6.01-40.34L6.09-40.34L6.09-40.34Q8.78-40.34 10.36-39.23L10.36-39.23L10.36-39.23Q11.71-39.08 11.71-38.76L11.71-38.76L11.71-38.60L11.71-38.60Q10.52-38.60 10.52-38.05L10.52-38.05L10.52-38.05Q10.76-37.65 12.02-37.57L12.02-37.57L12.02-37.57Q12.18-37.18 13.13-36.94L13.13-36.94L15.19-37.10L15.98-36.86L22.07-38.13L22.39-38.13L22.39-38.13Q28.32-36.54 33.06-32.91L33.06-32.91L33.06-32.91Q38.05-27.92 38.84-25.23L38.84-25.23L38.84-25.23Q39.63-22.54 39.63-21.52L39.63-21.52L39.63-21.52Q38.52-12.10 37.73-12.10L37.73-12.10L37.73-12.10Q34.80-7.36 34.17-6.72L34.17-6.72L33.46-6.09L33.70-5.85L33.70-5.77L33.70-5.77Q32.27-4.03 30.77-3.56L30.77-3.56L30.77-3.56Q29.98-3.08 29.90-2.14L29.90-2.14L29.90-2.14Q28.79-1.03 26.18-1.03L26.18-1.03L26.18-1.03Q20.49 0.95 18.35 0.95L18.35 0.95L18.35 0.95Q17.48 0.95 14.95-0.40L14.95-0.40L14.95-0.40Q12.74-0.79 11.15-0.79L11.15-0.79L10.68-0.47L10.68-0.47Q11.15 0.40 11.15 3.72L11.15 3.72L11.15 4.75L11.71 8.38L11.79 13.92L11.79 14.71L11.79 14.71Q11.79 16.69 13.21 16.69L13.21 16.69L13.76 17.17L13.76 17.24L13.76 17.24Q13.21 17.24 13.21 17.80L13.21 17.80L13.21 17.80Q14.40 18.83 14.40 20.72L14.40 20.72L14.79 22.23L14.79 22.23Q13.45 22.62 11.94 22.62L11.94 22.62L6.41 22.23L6.41 22.23Q4.90 23.33 4.75 23.33L4.75 23.33L4.75 23.33Q3.01 22.86 1.34 19.46L1.34 19.46L1.27 19.38L1.34 18.98L1.34 18.98Q1.82 18.83 1.82 18.75L1.82 18.75L1.82 18.67L1.82 18.67Q1.27 17.88 1.27 17.48L1.27 17.48L1.34 17.17L1.58 17.17L1.58 17.17Q1.74 17.17 1.74 17.48L1.74 17.48L1.82 17.48L2.29 17.48L2.45 17.40L2.45 16.45L2.45 16.45Q3.01 15.66 4.11 15.66L4.11 15.66L4.11 15.66Q4.43 15.35 4.43 11.79L4.43 11.79L4.43 6.17L4.43 6.17Q4.43 4.27 3.96-1.03L3.96-1.03L3.96-30.93L3.88-33.38L1.82-33.38L1.58-33.70L1.50-38.05L1.50-38.05Q1.50-40.03 3.48-40.03L3.48-40.03L3.48-40.03Q3.88-40.18 6.01-40.34ZM2.45-38.84L2.45-38.84L2.45-38.84Q2.45-38.36 2.85-38.13L2.85-38.13L3.24-38.13L3.24-38.13Q3.80-38.13 3.96-38.60L3.96-38.60L3.96-38.84L3.96-38.84Q3.80-39.23 3.24-39.23L3.24-39.23L3.08-39.23L3.08-39.23Q2.45-39.23 2.45-38.84ZM11.15-37.10L11.00-37.10L10.84-36.86L10.84-36.62L11.00-36.39L11.15-36.39L11.31-36.62L11.31-36.86L11.15-37.10ZM23.26-37.10L23.26-37.10L23.10-37.10L23.10-36.78L23.10-36.78Q24.05-36.39 24.68-36.39L24.68-36.39L25.15-36.39L25.15-36.47L25.15-36.47Q25.15-36.86 23.26-37.10ZM3.88-36.94L3.48-36.94L3.24-36.78L3.24-36.39L3.24-36.39Q3.24-35.75 3.88-35.36L3.88-35.36L4.03-35.36L4.11-35.91L4.11-36.15L4.11-36.15Q4.11-36.86 3.88-36.94L3.88-36.94ZM13.21-35.99L13.21-35.99L13.45-35.91L13.84-35.91L14.08-36.15L13.92-36.39L13.84-36.39L13.84-36.39Q13.21-36.23 13.21-35.99ZM25.95-35.99L25.95-35.99L25.95-35.91L25.95-35.91Q26.74-34.96 28.08-34.57L28.08-34.57L28.32-34.57L28.32-34.57Q28.32-35.60 25.95-35.99ZM18.04-35.20L18.04-35.20L18.04-35.20Q18.04-34.88 21.28-34.49L21.28-34.49L21.28-34.49Q21.28-34.33 21.99-34.33L21.99-34.33L23.18-34.33L23.49-34.57L23.26-34.80L23.02-34.80L22.07-34.65L21.67-34.80L21.67-34.88L21.99-35.20L21.99-35.60L21.28-35.67L20.01-35.67L20.01-35.67Q18.19-35.60 18.04-35.20ZM5.54-31.25L5.54-31.25L5.54-31.25Q5.54-30.06 6.01-29.43L6.01-29.43L6.01-29.27L5.46-27.76L6.01-26.50L6.01-26.50Q5.30-20.09 5.30-16.69L5.30-16.69L5.30-11.00L5.30-11.00Q5.30-8.54 5.62-6.88L5.62-6.88L5.30-4.51L5.30-3.72L5.46 3.08L5.54 3.24L5.62 3.24L5.62 3.24Q6.41 2.93 6.41 2.29L6.41 2.29L6.41 2.14L6.01 1.42L6.01 1.42Q6.33 1.42 6.57-5.30L6.57-5.30L6.41-10.76L6.41-10.76Q6.80-24.76 6.80-29.27L6.80-29.27L6.80-29.43L6.80-29.43Q6.80-34.01 6.09-34.01L6.09-34.01L6.09-34.01Q5.54-34.01 5.54-31.25ZM29.90-33.62L29.90-33.62L29.66-33.62L29.66-33.46L29.66-33.46Q29.74-33.14 30.30-32.91L30.30-32.91L30.61-32.99L30.61-33.14L30.61-33.14Q30.38-33.62 29.90-33.62ZM18.91-30.45L18.91-30.45L18.91-30.45Q18.91-30.22 19.93-30.22L19.93-30.22L20.49-30.30L20.49-30.45L20.25-30.93L24.60-31.48L25.00-31.72L24.68-32.19L24.05-32.19L24.05-32.19Q18.91-31.56 18.91-30.45ZM33.14-31.88L33.14-31.88L33.06-31.72L33.06-31.72Q33.78-30.77 34.33-30.38L34.33-30.38L34.49-30.38L34.49-30.38Q34.49-31.17 33.14-31.88ZM27.45-31.25L27.29-31.48L26.97-31.48L26.97-31.40L27.29-31.09L27.45-31.09L27.45-31.25ZM12.66-30.93L12.42-30.93L11.94-30.45L11.94-30.30L12.26-30.30L12.66-30.69L12.66-30.93ZM25.23-30.69L25.23-30.69L24.60-30.69L24.60-30.61L24.60-30.61Q24.92-30.06 26.34-30.06L26.34-30.06L26.89-30.06L27.13-30.22L27.13-30.22Q26.89-30.53 25.23-30.69ZM8.23-29.74L8.23-29.74L8.23-29.27L8.23-29.27Q8.54-29.27 8.70-30.61L8.70-30.61L8.54-30.61L8.54-30.61Q8.23-30.53 8.23-29.74ZM16.53-30.22L16.53-30.22L16.37-30.22L16.37-30.22Q16.37-29.74 14.71-28.87L14.71-28.87L14.71-28.71L15.19-28.71L15.27-28.79L15.42-28.71L15.42-28.63L15.42-28.63Q12.02-26.97 11.31-25.71L11.31-25.71L11.31-25.71Q11.07-25.71 10.68-11.00L10.68-11.00L10.52-9.81L10.52-9.81Q10.52-9.57 14.00-6.96L14.00-6.96L17.32-5.46L17.32-5.46Q17.40-4.98 17.72-4.98L17.72-4.98L18.04-4.98L18.04-4.98Q20.41-4.98 23.41-6.72L23.41-6.72L23.41-6.72Q24.36-7.67 26.89-8.54L26.89-8.54L26.89-8.54Q30.93-11.71 30.93-14.71L30.93-14.71L30.93-15.98L30.77-17.01L30.77-17.17L31.40-17.96L31.40-18.19L31.40-18.19Q30.69-18.51 30.69-20.09L30.69-20.09L30.69-20.09Q30.69-22.86 29.11-24.60L29.11-24.60L29.11-24.60Q28.24-26.74 26.34-28.08L26.34-28.08L26.34-28.08Q25.71-29.11 22.23-29.90L22.23-29.90L21.52-29.90L17.80-29.58L17.56-29.58L17.56-29.58Q16.93-29.58 16.53-30.22ZM35.20-29.66L35.12-29.90L34.88-29.90L34.88-29.66L35.12-29.50L35.20-29.50L35.20-29.66ZM28.63-29.74L28.63-29.74L28.32-29.50L28.32-29.43L28.32-29.43Q28.32-28.48 29.98-27.76L29.98-27.76L30.22-27.76L30.22-27.92L30.22-27.92Q30.22-29.11 28.63-29.74ZM8.38-20.65L8.38-26.50L8.15-26.34L7.99-20.88L8.07-20.41L8.23-20.41L8.38-20.65ZM35.91-26.02L35.91-26.02L35.67-25.95L36.31-24.84L36.62-24.84L36.62-25.00L36.62-25.00Q36.62-25.55 35.91-26.02ZM31.09-25.95L31.09-25.95L30.69-25.95L30.69-25.47L30.69-25.47Q30.69-24.84 31.88-22.86L31.88-22.86L32.04-22.86L32.04-23.18L32.04-23.18Q32.04-25.15 31.09-25.95ZM32.43-21.28L32.35-21.67L31.96-21.67L31.96-21.20L32.35-21.12L32.43-21.28ZM34.96-12.26L34.96-12.26L35.12-12.26L35.12-12.26Q36.62-14.71 36.62-17.80L36.62-17.80L36.62-18.91L36.47-18.91L36.47-18.91Q35.75-18.91 34.96-12.26ZM32.91-18.83L32.91-18.83L32.75-18.83L32.75-17.72L33.06-17.40L33.14-17.40L33.38-17.64L33.38-17.64Q33.38-18.35 32.91-18.83ZM31.96-14.55L31.96-14.55L31.96-14.48L32.04-14.48L32.04-14.48Q32.99-14.55 32.99-15.27L32.99-15.27L32.99-15.98L32.75-16.06L32.67-16.06L32.67-16.06Q31.96-15.50 31.96-14.55ZM29.19-8.78L29.19-8.78L29.27-8.70L29.43-8.70L29.43-8.70Q30.38-9.25 30.45-9.65L30.45-9.65L30.30-9.73L30.30-9.73Q29.27-9.25 29.19-8.78ZM11.63-7.75L11.00-8.46L10.68-8.46L10.68-8.46Q10.76-7.51 11.63-7.51L11.63-7.51L11.63-7.75ZM29.27-6.09L29.27-6.09L29.27-5.77L29.43-5.77L29.43-5.77Q30.45-6.09 30.45-6.72L30.45-6.72L30.30-6.72L30.30-6.72Q29.50-6.72 29.27-6.09ZM19.93-3.24L19.93-3.24L19.93-3.16L20.25-3.16L20.25-3.16Q24.68-4.11 24.68-4.75L24.68-4.75L24.68-4.90L24.68-4.90Q24.68-5.06 24.36-5.06L24.36-5.06L24.36-5.06Q19.93-3.88 19.93-3.24ZM27.21-3.56L27.21-3.56L27.29-3.56L27.29-3.56Q28.87-4.19 29.11-4.51L29.11-4.51L29.11-4.59L28.87-4.75L28.79-4.75L28.79-4.75Q27.21-4.11 27.21-3.56ZM11.23-3.96L11.23-3.96L11.15-3.88L11.15-3.72L11.15-3.72Q11.15-2.93 15.82-2.45L15.82-2.45L17.40-3.24L17.40-3.32L17.17-3.72L16.69-3.72L14.55-3.24L14.55-3.24Q12.42-3.96 11.23-3.96ZM5.62 5.54L5.62 5.54L5.62 6.80L5.62 6.80Q5.62 8.15 6.01 8.15L6.01 8.15L6.01 8.15Q6.72 6.80 6.72 5.06L6.72 5.06L6.72 4.67L6.72 4.67Q6.72 4.43 6.25 4.43L6.25 4.43L6.25 4.43Q5.62 4.67 5.62 5.54ZM6.72 10.13L6.72 10.13L6.41 10.13L6.09 10.44L6.09 11.47L6.09 11.47Q6.09 12.18 6.41 12.89L6.41 12.89L6.80 12.89L6.96 12.42L6.96 11.39L6.96 11.39Q6.96 10.13 6.72 10.13ZM8.54 17.96L8.38 17.96L8.15 18.19L8.15 18.35L8.38 18.67L8.70 18.67L8.86 18.43L8.86 18.19L8.54 17.96ZM5.30 18.43L5.06 18.19L4.59 18.19L4.59 18.35L4.59 18.35Q4.67 18.67 5.22 18.67L5.22 18.67L5.30 18.43ZM10.76 18.19L10.36 18.19L10.13 18.43L10.13 18.59L10.36 18.91L10.76 18.91L11.00 18.67L11.00 18.43L10.76 18.19ZM4.83 19.93L3.32 19.93L3.16 20.17L3.16 20.25L3.16 20.25Q3.16 20.41 4.27 20.57L4.27 20.57L4.27 20.57Q5.54 20.49 5.54 20.25L5.54 20.25L5.54 20.09L4.83 19.93ZM43.74-57.90L43.74-57.90L45.33-57.98L45.33-57.98Q55.45-57.59 55.45-56.16L55.45-56.16L56.00-44.53L56.00-44.53Q56.00-42.95 54.26-36.54L54.26-36.54L54.26-36.54Q53.87-34.01 53.87-33.22L53.87-33.22L53.87-32.75L54.11-32.75L54.11-32.75Q59.41-36.86 66.21-36.86L66.21-36.86L66.21-36.86Q68.19-36.86 73.49-34.57L73.49-34.57L73.49-34.57Q74.51-33.78 76.10-31.32L76.10-31.32L76.10-31.32Q76.65-31.01 76.81-30.30L76.81-30.30L76.73-29.50L76.73-29.50Q78.94-27.76 78.94-23.26L78.94-23.26L78.94-23.26Q79.18-23.26 79.34-15.50L79.34-15.50L79.34-15.35L79.34-15.35Q79.34-13.92 78.07-6.64L78.07-6.64L77.76-5.14L79.42-5.14L79.42-5.14Q82.03-5.06 82.03-4.43L82.03-4.43L82.03-4.43Q82.03-4.11 79.50-3.88L79.50-3.88L79.50-3.88Q79.50-3.56 81.32-3.16L81.32-3.16L81.63-2.69L81.63-2.53L81.63-2.53Q80.13-2.29 80.13-2.14L80.13-2.14L80.13-2.14Q81.63-1.82 81.63-1.11L81.63-1.11L81.63-1.11Q81.63 2.61 79.50 2.61L79.50 2.61L78.86 2.69L78.86 2.69Q75.78 2.69 75.78 1.82L75.78 1.82L75.78 1.82Q75.78 1.58 72.54 1.42L72.54 1.42L72.54 1.42Q71.11 0.63 70.24 0.40L70.24 0.40L70.16 0.08L70.16 0.08Q70.16-3.40 71.19-10.05L71.19-10.05L71.19-10.05Q71.59-13.92 72.62-18.27L72.62-18.27L72.46-21.04L72.69-21.44L72.69-21.44Q71.67-22.23 71.67-23.73L71.67-23.73L71.67-23.73Q70.72-25.39 70.08-26.34L70.08-26.34L70.08-26.34Q67.32-27.53 66.76-27.53L66.76-27.53L66.76-27.53Q62.73-28.87 58.85-27.21L58.85-27.21L58.85-27.21Q53.71-23.73 53.71-22.07L53.71-22.07L53.24-16.93L53.39-11.63L53.39-11.63Q52.92-5.77 52.21-5.77L52.21-5.77L52.13-5.38L52.44-5.30L52.76-5.30L54.11-5.85L54.11-5.85Q56.00-5.54 56.00-4.59L56.00-4.59L55.45-4.11L55.45-3.80L55.45-3.80Q55.53-3.56 56.48-3.24L56.48-3.24L56.64-2.85L56.64-2.85Q56.16 1.27 55.45 1.27L55.45 1.27L55.21 1.27L55.21 1.27Q54.18 0.55 46.75 0.16L46.75 0.16L46.75 0.16Q41.45-0.32 41.45-1.42L41.45-1.42L41.45-2.69L41.45-2.69Q41.37-3.01 41.92-3.88L41.92-3.88L41.92-4.35L41.92-4.35Q40.97-5.70 40.97-5.93L40.97-5.93L40.97-5.93Q41.37-6.25 44.77-6.33L44.77-6.33L44.77-6.33Q45.33-6.33 45.56-9.41L45.56-9.41L45.56-9.41Q46.12-9.73 46.51-11.87L46.51-11.87L46.51-11.87Q46.99-12.50 46.99-13.21L46.99-13.21L46.99-13.29L46.99-13.29Q46.99-14.55 46.20-15.82L46.20-15.82L46.99-17.72L46.99-17.72Q47.54-17.72 47.62-35.04L47.62-35.04L48.73-46.67L48.73-50.15L48.73-50.15Q48.73-51.89 47.62-51.89L47.62-51.89L45.01-51.97L43.35-51.50L43.35-51.50Q42.95-51.50 42.79-53.63L42.79-53.63L42.79-54.42L42.79-54.42Q42.79-57.90 43.74-57.90ZM43.58-1.58L43.58-1.58L43.58-1.42L43.74-1.42L43.74-1.42Q44.77-1.42 47.62-0.40L47.62-0.40L47.62-0.40Q51.97-0.32 54.50 0.16L54.50 0.16L54.74 0.16L54.98-0.16L54.98-0.24L54.98-0.24Q54.98-1.03 47.46-1.03L47.46-1.03L47.46-1.03Q46.20-1.82 44.30-1.82L44.30-1.82L44.30-1.82Q43.58-1.74 43.58-1.58ZM76.33-8.70L76.33-8.70L76.57-8.70L76.57-8.70Q77.12-8.70 78.07-14.63L78.07-14.63L78.07-14.63Q78.07-15.50 77.52-15.74L77.52-15.74L77.20-15.74L77.20-15.74Q76.73-15.74 76.33-8.70ZM73.64-25.47L73.96-25.15L74.43-26.42L74.43-26.42Q74.75-25.79 74.83-25.47L74.83-25.47L74.83-25.47Q75.15-24.92 75.46-24.92L75.46-24.92L75.46-25.55L75.46-25.55Q75.46-27.13 73.25-29.27L73.25-29.27L72.85-29.35L72.54-29.35L72.54-29.03L72.54-29.03Q73.64-27.92 74.36-26.66L74.36-26.66L73.64-25.47ZM50.47-44.06L50.47-44.06L50.47-44.06Q50.23-43.58 50.23-41.21L50.23-41.21L50.23-41.21Q51.18-41.21 51.18-39.79L51.18-39.79L51.26-39.79L51.26-39.79Q51.50-40.26 51.50-41.45L51.50-41.45L51.50-42.48L51.42-42.48L51.10-41.61L50.78-41.61L50.70-42.08L50.70-42.08Q50.86-42.71 51.02-42.71L51.02-42.71L51.50-42.56L51.50-42.56Q51.34-43.03 50.47-44.06ZM46.43-6.57L46.43-6.57L46.43-6.57Q46.43-6.01 49.04-5.77L49.04-5.77L49.20-5.77L49.44-5.93L49.44-6.57L49.44-6.57Q49.28-6.80 48.81-6.80L48.81-6.80L47.22-6.80L47.22-6.80Q46.43-6.80 46.43-6.57ZM71.51-2.53L71.51-2.53L71.67-2.53L72.46-2.45L74.91-2.53L74.99-2.61L74.99-2.69L74.99-2.69Q74.20-3.24 72.46-3.24L72.46-3.24L72.46-3.24Q71.75-3.24 71.51-2.53ZM42.71-4.11L42.71-4.11L42.71-3.88L43.27-3.88L46.04-3.88L46.04-3.88Q46.04-4.51 43.58-4.59L43.58-4.59L43.58-4.59Q42.79-4.59 42.71-4.11ZM65.26-30.22L65.26-30.22L64.71-30.14L64.71-29.74L64.71-29.74Q66.45-28.87 66.92-28.87L66.92-28.87L67.24-29.27L67.24-29.27Q67.24-29.74 65.26-30.22ZM45.48-56.79L45.48-56.79L45.48-56.56L45.48-56.56Q46.43-55.85 48.17-55.85L48.17-55.85L48.33-56.16L48.33-56.16Q46.67-56.79 45.48-56.79ZM52.21-25.23L52.21-25.23L52.21-24.60L52.44-24.60L52.44-24.60Q53.24-24.60 53.47-26.02L53.47-26.02L53.55-26.10L53.55-26.50L53.47-26.50L53.47-26.50Q52.92-26.18 52.21-25.23ZM53.87-56.40L53.00-56.40L52.68-56.00L52.68-56.00Q52.92-55.61 53.39-55.37L53.39-55.37L53.47-55.37L53.47-55.37Q54.03-55.37 54.18-55.77L54.18-55.77L54.18-55.92L53.87-56.40ZM71.90-0.55L71.90-0.55L71.03-0.55L71.03-0.32L71.03-0.32Q71.11 0.16 72.06 0.16L72.06 0.16L72.85 0.16L72.85-0.08L72.85-0.08Q72.85-0.32 71.90-0.55ZM54.11-3.88L53.55-3.88L53.39-3.80L53.39-3.40L53.87-3.01L54.26-3.01L54.66-3.32L54.66-3.40L54.11-3.88ZM47.86-53.95L47.07-53.95L46.67-53.87L46.67-53.71L46.67-53.71Q46.75-53.47 47.22-53.47L47.22-53.47L47.86-53.47L48.33-53.63L48.33-53.87L47.86-53.95ZM73.17-5.30L73.17-5.30L73.17-4.98L73.80-4.98L74.04-5.14L74.04-5.54L73.80-5.77L73.80-5.77Q73.33-5.77 73.17-5.30ZM53.08-23.81L53.08-23.81L53.31-23.57L53.87-23.57L53.87-23.57Q54.34-23.57 54.42-23.81L54.42-23.81L54.18-24.05L53.87-24.05L53.87-24.05Q53.24-24.05 53.08-23.81ZM71.19-34.25L71.19-34.25L71.19-34.01L71.19-34.01Q71.51-33.46 72.38-33.46L72.38-33.46L72.38-33.70L72.38-33.70Q72.06-34.25 71.19-34.25ZM69.77-28.24L69.77-28.24L69.77-28.08L69.77-28.08Q69.77-27.37 70.56-27.37L70.56-27.37L70.56-27.45L70.56-27.45Q70.48-28.24 69.77-28.24ZM51.57-48.49L51.26-48.81L51.10-48.57L51.10-48.01L51.26-47.78L51.57-48.01L51.57-48.49ZM47.30-55.13L46.43-55.21L46.20-55.21L46.20-55.13L46.27-54.82L47.30-54.82L47.30-55.13ZM56.16-29.50L56.16-29.50L56.40-29.50L56.40-29.50Q57.27-30.14 57.27-30.30L57.27-30.30L57.03-30.30L57.03-30.30Q56.24-29.90 56.16-29.50ZM77.36-27.29L77.20-27.29L76.97-27.05L76.97-26.89L77.44-26.58L77.60-26.58L77.76-26.74L77.36-27.29ZM67.00-35.99L67.00-35.99L66.92-35.99L66.92-35.91L66.92-35.91Q66.92-35.67 67.95-35.44L67.95-35.44L67.95-35.52L67.95-35.52Q67.95-35.91 67.00-35.99ZM51.26-46.43L51.18-46.43L51.02-46.20L51.02-45.96L51.26-45.72L51.57-45.80L51.57-46.04L51.26-46.43ZM63.44-31.48L63.20-31.72L62.65-31.72L62.65-31.56L62.89-31.32L63.44-31.32L63.44-31.48ZM59.80-28.08L59.56-28.08L59.25-27.76L59.25-27.53L59.48-27.53L59.80-27.84L59.80-28.08ZM71.90-1.42L71.67-1.66L71.43-1.42L71.43-1.34L71.67-1.11L71.82-1.11L71.90-1.42ZM44.53-55.61L44.30-55.77L44.22-55.77L44.22-55.13L44.30-55.13L44.53-55.37L44.53-55.61ZM77.92-16.93L77.76-17.09L77.52-16.93L77.76-16.69L77.92-16.69L77.92-16.93ZM54.18-4.59L54.18-4.83L53.87-4.83L53.87-4.59L54.18-4.59ZM63.99-29.35L63.83-29.35L63.68-29.19L63.99-29.19L63.99-29.35ZM74.51-26.74L74.51-26.66L74.43-26.50L74.43-26.50Q74.28-26.50 74.43-26.66L74.43-26.66L74.51-26.74ZM104.89-37.42L104.89-37.42L107.10-36.78L107.82-36.78L107.82-36.78Q112.32-34.57 116.20-31.48L116.20-31.48L116.20-31.48Q120.23-28.00 120.23-26.26L120.23-26.26L120.08-26.26L120.08-26.26Q119.44-27.37 118.81-27.37L118.81-27.37L118.73-27.37L118.73-27.37Q118.49-27.37 118.49-27.05L118.49-27.05L118.49-27.05Q118.81-26.18 119.92-24.05L119.92-24.05L120.08-24.05L120.08-24.05Q120.23-24.05 120.47-24.84L120.47-24.84L120.55-24.84L120.55-24.84Q120.79-24.76 121.10-22.54L121.10-22.54L121.82-20.96L121.66-19.93L121.90-17.09L121.90-17.09Q121.34-15.11 120.87-11.87L120.87-11.87L120.87-11.87Q120.55-10.36 113.51-0.63L113.51-0.63L113.51-0.63Q110.35 2.37 107.34 2.37L107.34 2.37L107.34 2.37Q104.57 2.69 101.09 2.69L101.09 2.69L99.59 2.69L99.59 2.69Q98.24 2.69 92.55 0.40L92.55 0.40L92.55 0.40Q85.35-6.01 85.35-9.41L85.35-9.41L85.35-9.41Q84.32-11.55 83.61-13.37L83.61-13.37L83.61-13.37Q83.61-14.40 85.75-20.17L85.75-20.17L85.75-20.17Q85.75-23.81 87.49-25.23L87.49-25.23L87.49-25.23Q91.20-33.22 96.90-35.60L96.90-35.60L96.90-35.60Q101.88-37.42 104.89-37.42ZM90.65-12.58L90.65-12.58L90.65-12.10L90.65-12.10Q91.76-9.97 93.10-7.51L93.10-7.51L93.10-7.51Q93.10-6.72 96.11-5.30L96.11-5.30L96.11-5.30Q97.53-3.64 101.41-2.69L101.41-2.69L102.83-2.53L102.83-2.53Q106.31-3.24 108.05-4.03L108.05-4.03L110.90-6.41L110.90-6.41Q115.33-11.15 115.17-14.40L115.17-14.40L115.17-15.11L115.17-15.11Q114.70-16.37 114.70-19.22L114.70-19.22L114.70-19.22Q114.70-21.44 115.01-22.70L115.01-22.70L115.01-22.70Q115.01-23.26 111.93-25.47L111.93-25.47L111.93-25.47Q109.71-28.63 107.34-29.35L107.34-29.35L106.39-29.35L106.39-29.35Q97.14-28.95 97.14-27.84L97.14-27.84L97.14-27.84Q95.08-25.79 94.29-23.81L94.29-23.81L94.29-23.81Q91.76-21.12 91.76-20.25L91.76-20.25L91.76-20.25Q91.05-17.01 90.65-12.58ZM93.10-31.72L93.10-31.72L92.87-31.32L92.87-31.01L92.87-31.01Q93.34-31.01 97.69-34.33L97.69-34.33L98.32-34.57L98.80-34.49L98.80-34.49Q104.10-35.04 104.10-35.52L104.10-35.52L104.10-35.60L102.83-35.83L102.83-35.83Q97.45-35.83 93.10-31.72ZM99.27-30.06L99.27-30.06L99.27-29.98L99.43-29.74L100.54-29.74L106.15-31.01L106.15-31.17L104.65-31.48L104.65-31.48Q99.27-30.85 99.27-30.06ZM86.85-10.36L86.85-10.36L86.54-10.13L86.54-9.57L86.54-9.57Q86.70-6.88 88.04-6.57L88.04-6.57L88.12-6.64L88.12-6.72L88.12-6.72Q87.57-10.36 86.85-10.36ZM99.11-32.75L99.11-32.75L99.11-32.35L99.11-32.35Q105.28-33.06 105.28-33.30L105.28-33.30L104.65-33.54L104.57-33.54L104.57-33.54Q100.78-33.54 99.11-32.75ZM105.84-35.75L105.84-35.75L105.84-35.75Q106.23-34.65 107.58-34.65L107.58-34.65L108.37-34.57L108.53-34.65L108.53-35.04L108.53-35.04Q108.53-35.91 106.87-36.07L106.87-36.07L106.87-36.07Q105.84-35.99 105.84-35.75ZM91.44-2.37L91.44-2.37L90.89-2.37L90.89-2.06L90.89-2.06Q91.92-1.03 94.61-1.03L94.61-1.03L95.48-1.03L95.48-1.03Q95.08-1.58 91.44-2.37ZM104.49 0.55L104.49 0.55L104.49 0.71L104.49 0.71Q104.49 0.95 105.68 1.11L105.68 1.11L105.68 1.11Q107.02 1.11 107.02 0.71L107.02 0.71L107.02 0.55L107.02 0.55Q106.95 0.24 106.47-0.08L106.47-0.08L105.76-0.08L105.76-0.08Q104.89-0.08 104.49 0.55ZM119.52-14.48L119.52-14.48L119.52-14.48Q119.60-12.10 119.92-11.94L119.92-11.94L120.08-11.94L120.08-11.94Q120.08-12.81 120.79-13.84L120.79-13.84L120.79-14.08L119.92-15.27L119.76-15.27L119.76-15.27Q119.60-15.27 119.52-14.48ZM114.30-28.08L114.30-28.08L113.99-28.08L113.99-28.08Q114.46-27.05 116.28-26.34L116.28-26.34L116.60-26.34L116.83-26.58L116.83-26.66L116.83-26.66Q115.49-28.08 114.30-28.08ZM112.56-30.53L112.56-30.53L112.56-30.38L112.56-30.38Q112.80-29.43 114.78-28.40L114.78-28.40L115.01-28.40L115.17-28.63L115.17-28.71L115.17-28.71Q114.78-29.27 112.56-30.53ZM107.34-33.14L107.34-33.14L107.18-33.06L107.18-33.06Q108.69-31.88 109.56-31.88L109.56-31.88L109.63-32.04L109.63-32.12L109.63-32.12Q108.37-33.14 107.34-33.14ZM96.82-1.34L96.82-1.34L96.82-1.11L96.82-1.11Q96.82-0.63 99.04-0.63L99.04-0.63L99.11-0.71L99.11-0.87L99.11-0.87Q98.09-1.34 96.82-1.34ZM111.53-34.01L111.38-34.01L111.14-33.78L111.14-33.78Q112.01-32.67 112.88-32.67L112.88-32.67L112.88-32.67Q112.88-33.54 111.53-34.01L111.53-34.01ZM92.07-25.87L92.07-25.87L92.07-25.31L92.31-25.31L92.31-25.31Q93.34-26.26 93.34-26.82L93.34-26.82L93.34-26.89L92.94-26.89L92.94-26.89Q92.47-26.58 92.07-25.87ZM109.95-29.50L109.95-29.50L109.95-29.50Q110.43-28.71 111.06-28.71L111.06-28.71L111.14-28.87L111.14-29.03L111.14-29.03Q111.14-29.74 110.50-29.74L110.50-29.74L110.50-29.74Q109.95-29.66 109.95-29.50ZM117.62-8.70L117.62-8.70L117.62-8.62L117.62-8.62Q118.26-8.62 118.73-9.89L118.73-9.89L118.73-10.05L118.49-10.05L118.49-10.05Q118.02-10.05 117.62-8.70ZM93.74-29.98L93.74-29.98L93.74-29.98Q94.45-29.98 95.08-30.93L95.08-30.93L95.08-31.17L95.08-31.17Q93.74-30.77 93.74-29.98ZM118.97-11.55L118.89-10.13L119.29-10.13L119.60-9.89L119.60-9.89Q119.68-11.15 119.21-11.00L119.21-11.00L119.05-11.00L118.97-11.55ZM108.76 1.11L108.76 1.11L108.84 1.11L108.84 1.11Q110.27 0.63 110.27 0.32L110.27 0.32L110.11 0.16L110.11 0.16Q109.00 0.55 108.76 1.11ZM89.78-5.14L89.78-5.14L89.46-4.98L89.46-4.83L90.10-4.19L90.41-4.19L90.41-4.19Q90.41-4.75 89.78-5.14ZM95.16-0.24L95.16-0.24L95.16-0.16L96.19-0.16L96.35-0.32L96.19-0.55L96.03-0.55L96.03-0.55Q95.24-0.55 95.16-0.24ZM120.87-20.09L120.79-20.09L120.55-19.85L120.55-19.54L120.79-19.22L121.10-19.54L121.10-19.85L120.87-20.09ZM87.33-22.62L87.33-22.62L87.33-22.62Q87.72-22.62 88.04-23.18L88.04-23.18L88.04-23.33L88.04-23.33Q87.33-23.33 87.33-22.62ZM84.96-14.08L84.88-14.08L84.72-13.84L84.72-13.84Q84.80-13.13 84.96-13.13L84.96-13.13L85.11-13.21L85.11-13.61L84.96-14.08ZM106.00-32.35L106.00-32.35L106.00-32.27L106.79-32.91L106.63-32.99L106.63-32.99Q105.84-32.51 106.00-32.35ZM88.91-25.31L88.91-25.31L88.99-25.31L88.99-25.31Q89.31-25.39 89.31-25.95L89.31-25.95L89.15-25.95L89.15-25.95Q88.91-25.79 88.91-25.31ZM89.46-15.82L89.38-15.82L89.07-15.50L89.07-15.35L89.31-15.35L89.46-15.58L89.46-15.82ZM94.05-27.61L94.05-27.76L93.74-27.76L93.74-27.45L93.89-27.45L94.05-27.61ZM141.28-63.60L141.28-63.60L141.28-63.60Q143.02-63.60 144.12-62.65L144.12-62.65L144.12-62.65Q143.17-60.12 142.86-54.66L142.86-54.66L142.15-47.38L142.15-47.38Q142.15-46.83 145.31-46.83L145.31-46.83L145.31-46.83Q154.64-46.83 154.64-45.96L154.64-45.96L154.64-45.96Q155.04-45.96 155.59-45.48L155.59-45.48L155.59-45.48Q154.80-44.46 154.80-43.98L154.80-43.98L154.80-43.74L155.04-42.16L154.01-38.68L154.01-38.68Q154.01-38.13 155.20-37.10L155.20-37.10L155.20-36.94L155.20-36.94Q153.30-36.31 152.11-36.31L152.11-36.31L152.11-36.31Q150.85-36.39 150.85-36.70L150.85-36.70L150.85-36.86L151.56-36.94L152.11-36.94L152.43-37.26L152.43-37.42L152.11-37.49L146.81-37.42L142.46-37.49L142.46-37.49Q142.07-37.49 141.59-33.06L141.59-33.06L141.51-33.06L140.41-34.33L140.17-33.46L140.17-32.99L140.17-32.99Q140.25-30.77 140.72-30.61L140.72-30.61L140.72-30.61Q141.04-30.61 141.28-32.04L141.28-32.04L141.28-32.59L141.51-32.59L141.59-32.35L141.04-24.76L141.04-24.76Q141.99-8.38 142.70-8.38L142.70-8.38L142.70-8.38Q143.09-5.85 144.68-5.85L144.68-5.85L144.68-5.85Q145.55-5.30 146.81-5.30L146.81-5.30L148.24-5.30L152.98-5.54L152.98-5.54Q153.14-5.54 153.54-1.34L153.54-1.34L153.54-1.34Q153.69-0.08 153.02 0.51L153.02 0.51L153.02 0.51Q152.35 1.11 150.77 1.11L150.77 1.11L144.68 1.27L144.68 1.27Q139.69 1.27 136.29-1.50L136.29-1.50L136.29-1.50Q134.08-2.29 134.08-6.25L134.08-6.25L134.08-6.25Q133.92-8.38 133.52-18.91L133.52-18.91L134.47-29.66L134.71-34.33L134.71-34.96L134.71-34.96Q134.16-38.29 132.81-38.29L132.81-38.29L130.44-38.29L127.67-38.29L127.67-38.29Q126.48-38.29 125.30-37.73L125.30-37.73L125.30-37.73Q124.51-37.81 123.32-39.87L123.32-39.87L124.90-46.91L124.90-46.91Q124.90-47.22 134.47-47.30L134.47-47.30L134.47-47.30Q134.47-48.33 135.58-49.91L135.58-49.91L135.58-49.91Q135.90-62.25 136.45-62.25L136.45-62.25L136.45-62.49L136.45-62.49Q136.45-62.65 136.05-62.65L136.05-62.65L136.05-62.89L136.05-62.89Q136.05-63.12 141.28-63.60ZM138.43-61.30L138.27-61.46L138.19-61.46L138.19-60.99L138.43-60.99L138.43-61.30ZM142.46-61.30L141.67-61.30L141.35-60.99L141.35-60.83L141.59-59.01L141.75-59.01L141.75-59.01Q142.70-59.96 142.70-60.67L142.70-60.67L142.70-60.99L142.46-61.30ZM138.82-57.59L138.82-58.38L138.59-58.61L138.59-58.61Q138.43-57.82 138.43-56.56L138.43-56.56L138.43-56.24L138.59-56.24L138.82-57.59ZM139.06-55.05L139.06-55.05L138.90-55.05L138.59-47.22L138.59-47.14L138.82-46.91L138.98-46.91L138.98-46.91Q139.54-46.91 139.54-48.88L139.54-48.88L139.54-50.70L139.38-54.58L139.38-54.58Q139.22-55.05 139.06-55.05ZM125.38-45.96L125.38-45.96L125.38-45.96Q125.38-45.40 126.09-45.40L126.09-45.40L127.27-45.40L127.27-45.40Q130.52-45.40 133.29-45.72L133.29-45.72L133.29-45.88L133.29-45.88Q133.29-46.27 129.41-46.27L129.41-46.27L126.09-46.27L126.09-46.27Q125.38-46.27 125.38-45.96ZM150.85-46.27L150.06-46.27L149.03-45.88L148.08-45.88L146.73-45.88L146.73-45.64L146.73-45.64Q148.47-45.17 149.74-45.17L149.74-45.17L151.56-45.17L151.56-45.17Q151.72-45.17 151.72-45.40L151.72-45.40L151.72-45.40Q151.56-46.27 150.85-46.27L150.85-46.27ZM153.14-45.48L152.27-45.48L152.03-45.33L152.03-45.17L152.27-45.09L152.27-45.09Q153.06-45.09 153.14-45.40L153.14-45.40L153.14-45.48ZM127.51-44.46L126.64-44.46L126.48-44.30L126.48-43.82L126.48-43.82Q126.48-43.03 131.78-43.03L131.78-43.03L131.78-43.03Q134.47-43.03 134.47-43.43L134.47-43.43L134.47-43.43Q134.47-44.38 127.51-44.46L127.51-44.46ZM144.04-43.74L143.49-43.74L143.25-43.51L143.25-43.43L143.25-43.43Q143.25-43.03 146.10-42.95L146.10-42.95L147.45-43.03L149.26-42.71L149.58-42.71L149.58-42.71Q150.13-42.71 150.13-43.19L150.13-43.19L150.06-43.19L144.04-43.74ZM153.06-42.00L152.03-42.00L151.72-41.69L151.72-41.61L152.03-41.37L152.43-41.37L152.43-41.37Q153.14-41.37 153.30-41.84L153.30-41.84L153.06-42.00ZM128.07-41.69L127.35-41.69L127.04-41.45L127.04-41.45Q127.04-41.13 127.43-41.13L127.43-41.13L129.41-41.05L131.55-41.13L131.63-41.21L131.63-41.37L131.63-41.37Q130.68-41.69 128.07-41.69L128.07-41.69ZM133.68-39.95L133.52-40.18L127.04-40.42L127.04-40.26L127.04-40.26Q127.04-39.71 133.05-39.71L133.05-39.71L133.68-39.87L133.68-39.95ZM144.83-39.95L144.83-39.95L144.44-39.95L144.44-39.71L144.44-39.71Q144.52-39.55 147.21-38.92L147.21-38.92L147.37-38.92L147.37-39.08L147.37-39.08Q146.10-39.95 144.83-39.95ZM148.87-39.16L148.87-39.16L148.87-39.16Q151.00-38.44 152.67-38.44L152.67-38.44L152.98-38.76L152.98-39.23L152.75-39.47L151.00-39.47L151.00-39.47Q148.87-39.47 148.87-39.16ZM137.87-36.31L137.87-36.31L137.87-35.67L138.11-35.44L138.11-35.44Q138.43-35.52 138.43-35.99L138.43-35.99L138.43-36.31L138.27-36.86L138.19-36.86L138.19-36.86Q137.87-36.78 137.87-36.31ZM140.80-34.65L140.80-34.88L140.41-35.20L140.41-34.96L140.72-34.65L140.80-34.65ZM138.43-34.57L138.27-34.73L138.11-34.73L138.03-34.33L138.03-33.93L138.11-33.46L138.43-33.46L138.43-34.17L138.43-34.57ZM138.59-28.63L138.43-29.27L138.19-29.27L138.19-28.63L138.43-28.32L138.59-28.32L138.59-28.63ZM134.63-19.22L134.63-19.22L134.87-17.01L134.79-14.24L134.87-13.45L135.11-13.45L135.11-13.45Q135.58-13.45 135.58-17.17L135.58-17.17L135.58-18.98L135.58-18.98Q135.58-22.62 135.26-22.62L135.26-22.62L135.26-22.62Q134.71-22.62 134.63-19.22ZM139.77-12.97L139.77-12.97L139.61-12.97L139.54-12.42L139.54-11.79L139.54-11.79Q139.54-11.23 139.85-11.15L139.85-11.15L140.01-11.15L140.01-11.15Q140.33-11.23 140.33-11.71L140.33-11.71L140.33-11.71Q140.25-12.97 139.77-12.97ZM140.41-9.57L140.41-9.57L140.09-8.70L140.09-8.70Q140.09-6.88 140.88-6.41L140.88-6.41L141.04-6.72L141.04-7.44L141.04-7.44Q140.96-9.41 140.41-9.57ZM137.48-8.86L137.32-9.02L137.08-9.02L137.08-7.83L137.24-7.36L137.32-7.36L137.48-7.51L137.48-8.86ZM139.61-4.03L139.61-4.03L139.61-3.96L139.61-3.48L139.61-3.48Q139.69-3.16 140.17-2.85L140.17-2.85L140.72-2.85L140.72-3.01L140.72-3.01Q140.72-3.88 139.61-4.03ZM148.39-2.45L148.39-2.45L148.71-2.45L148.71-2.45Q151.64-2.93 151.64-3.48L151.64-3.48L151.48-3.64L151.48-3.64Q148.39-2.85 148.39-2.45ZM138.74-2.14L137.64-3.56L137.48-3.56L137.48-3.24L137.48-3.24Q137.72-1.27 139.22-1.27L139.22-1.27L140.01-1.27L140.17-1.50L140.17-1.58L140.17-1.58Q140.17-1.74 138.74-2.14L138.74-2.14ZM180.04-37.42L180.04-37.42L182.25-36.78L182.96-36.78L182.96-36.78Q187.47-34.57 191.35-31.48L191.35-31.48L191.35-31.48Q195.38-28.00 195.38-26.26L195.38-26.26L195.22-26.26L195.22-26.26Q194.59-27.37 193.96-27.37L193.96-27.37L193.88-27.37L193.88-27.37Q193.64-27.37 193.64-27.05L193.64-27.05L193.64-27.05Q193.96-26.18 195.06-24.05L195.06-24.05L195.22-24.05L195.22-24.05Q195.38-24.05 195.62-24.84L195.62-24.84L195.70-24.84L195.70-24.84Q195.93-24.76 196.25-22.54L196.25-22.54L196.96-20.96L196.80-19.93L197.04-17.09L197.04-17.09Q196.49-15.11 196.01-11.87L196.01-11.87L196.01-11.87Q195.70-10.36 188.66-0.63L188.66-0.63L188.66-0.63Q185.49 2.37 182.49 2.37L182.49 2.37L182.49 2.37Q179.72 2.69 176.24 2.69L176.24 2.69L174.74 2.69L174.74 2.69Q173.39 2.69 167.70 0.40L167.70 0.40L167.70 0.40Q160.50-6.01 160.50-9.41L160.50-9.41L160.50-9.41Q159.47-11.55 158.76-13.37L158.76-13.37L158.76-13.37Q158.76-14.40 160.89-20.17L160.89-20.17L160.89-20.17Q160.89-23.81 162.63-25.23L162.63-25.23L162.63-25.23Q166.35-33.22 172.05-35.60L172.05-35.60L172.05-35.60Q177.03-37.42 180.04-37.42ZM165.80-12.58L165.80-12.58L165.80-12.10L165.80-12.10Q166.90-9.97 168.25-7.51L168.25-7.51L168.25-7.51Q168.25-6.72 171.25-5.30L171.25-5.30L171.25-5.30Q172.68-3.64 176.55-2.69L176.55-2.69L177.98-2.53L177.98-2.53Q181.46-3.24 183.20-4.03L183.20-4.03L186.05-6.41L186.05-6.41Q190.48-11.15 190.32-14.40L190.32-14.40L190.32-15.11L190.32-15.11Q189.84-16.37 189.84-19.22L189.84-19.22L189.84-19.22Q189.84-21.44 190.16-22.70L190.16-22.70L190.16-22.70Q190.16-23.26 187.08-25.47L187.08-25.47L187.08-25.47Q184.86-28.63 182.49-29.35L182.49-29.35L181.54-29.35L181.54-29.35Q172.28-28.95 172.28-27.84L172.28-27.84L172.28-27.84Q170.23-25.79 169.44-23.81L169.44-23.81L169.44-23.81Q166.90-21.12 166.90-20.25L166.90-20.25L166.90-20.25Q166.19-17.01 165.80-12.58ZM168.25-31.72L168.25-31.72L168.01-31.32L168.01-31.01L168.01-31.01Q168.49-31.01 172.84-34.33L172.84-34.33L173.47-34.57L173.94-34.49L173.94-34.49Q179.24-35.04 179.24-35.52L179.24-35.52L179.24-35.60L177.98-35.83L177.98-35.83Q172.60-35.83 168.25-31.72ZM174.42-30.06L174.42-30.06L174.42-29.98L174.58-29.74L175.68-29.74L181.30-31.01L181.30-31.17L179.80-31.48L179.80-31.48Q174.42-30.85 174.42-30.06ZM162-10.36L162-10.36L161.68-10.13L161.68-9.57L161.68-9.57Q161.84-6.88 163.19-6.57L163.19-6.57L163.27-6.64L163.27-6.72L163.27-6.72Q162.71-10.36 162-10.36ZM174.26-32.75L174.26-32.75L174.26-32.35L174.26-32.35Q180.43-33.06 180.43-33.30L180.43-33.30L179.80-33.54L179.72-33.54L179.72-33.54Q175.92-33.54 174.26-32.75ZM180.98-35.75L180.98-35.75L180.98-35.75Q181.38-34.65 182.72-34.65L182.72-34.65L183.52-34.57L183.67-34.65L183.67-35.04L183.67-35.04Q183.67-35.91 182.01-36.07L182.01-36.07L182.01-36.07Q180.98-35.99 180.98-35.75ZM166.59-2.37L166.59-2.37L166.03-2.37L166.03-2.06L166.03-2.06Q167.06-1.03 169.75-1.03L169.75-1.03L170.62-1.03L170.62-1.03Q170.23-1.58 166.59-2.37ZM179.64 0.55L179.64 0.55L179.64 0.71L179.64 0.71Q179.64 0.95 180.83 1.11L180.83 1.11L180.83 1.11Q182.17 1.11 182.17 0.71L182.17 0.71L182.17 0.55L182.17 0.55Q182.09 0.24 181.62-0.08L181.62-0.08L180.91-0.08L180.91-0.08Q180.04-0.08 179.64 0.55ZM194.67-14.48L194.67-14.48L194.67-14.48Q194.75-12.10 195.06-11.94L195.06-11.94L195.22-11.94L195.22-11.94Q195.22-12.81 195.93-13.84L195.93-13.84L195.93-14.08L195.06-15.27L194.91-15.27L194.91-15.27Q194.75-15.27 194.67-14.48ZM189.45-28.08L189.45-28.08L189.13-28.08L189.13-28.08Q189.61-27.05 191.43-26.34L191.43-26.34L191.74-26.34L191.98-26.58L191.98-26.66L191.98-26.66Q190.63-28.08 189.45-28.08ZM187.71-30.53L187.71-30.53L187.71-30.38L187.71-30.38Q187.95-29.43 189.92-28.40L189.92-28.40L190.16-28.40L190.32-28.63L190.32-28.71L190.32-28.71Q189.92-29.27 187.71-30.53ZM182.49-33.14L182.49-33.14L182.33-33.06L182.33-33.06Q183.83-31.88 184.70-31.88L184.70-31.88L184.78-32.04L184.78-32.12L184.78-32.12Q183.52-33.14 182.49-33.14ZM171.97-1.34L171.97-1.34L171.97-1.11L171.97-1.11Q171.97-0.63 174.18-0.63L174.18-0.63L174.26-0.71L174.26-0.87L174.26-0.87Q173.23-1.34 171.97-1.34ZM186.68-34.01L186.52-34.01L186.28-33.78L186.28-33.78Q187.15-32.67 188.02-32.67L188.02-32.67L188.02-32.67Q188.02-33.54 186.68-34.01L186.68-34.01ZM167.22-25.87L167.22-25.87L167.22-25.31L167.46-25.31L167.46-25.31Q168.49-26.26 168.49-26.82L168.49-26.82L168.49-26.89L168.09-26.89L168.09-26.89Q167.62-26.58 167.22-25.87ZM185.10-29.50L185.10-29.50L185.10-29.50Q185.57-28.71 186.21-28.71L186.21-28.71L186.28-28.87L186.28-29.03L186.28-29.03Q186.28-29.74 185.65-29.74L185.65-29.74L185.65-29.74Q185.10-29.66 185.10-29.50ZM192.77-8.70L192.77-8.70L192.77-8.62L192.77-8.62Q193.40-8.62 193.88-9.89L193.88-9.89L193.88-10.05L193.64-10.05L193.64-10.05Q193.17-10.05 192.77-8.70ZM168.88-29.98L168.88-29.98L168.88-29.98Q169.59-29.98 170.23-30.93L170.23-30.93L170.23-31.17L170.23-31.17Q168.88-30.77 168.88-29.98ZM194.12-11.55L194.04-10.13L194.43-10.13L194.75-9.89L194.75-9.89Q194.83-11.15 194.35-11.00L194.35-11.00L194.19-11.00L194.12-11.55ZM183.91 1.11L183.91 1.11L183.99 1.11L183.99 1.11Q185.41 0.63 185.41 0.32L185.41 0.32L185.26 0.16L185.26 0.16Q184.15 0.55 183.91 1.11ZM164.93-5.14L164.93-5.14L164.61-4.98L164.61-4.83L165.24-4.19L165.56-4.19L165.56-4.19Q165.56-4.75 164.93-5.14ZM170.31-0.24L170.31-0.24L170.31-0.16L171.33-0.16L171.49-0.32L171.33-0.55L171.18-0.55L171.18-0.55Q170.38-0.55 170.31-0.24ZM196.01-20.09L195.93-20.09L195.70-19.85L195.70-19.54L195.93-19.22L196.25-19.54L196.25-19.85L196.01-20.09ZM162.47-22.62L162.47-22.62L162.47-22.62Q162.87-22.62 163.19-23.18L163.19-23.18L163.19-23.33L163.19-23.33Q162.47-23.33 162.47-22.62ZM160.10-14.08L160.02-14.08L159.86-13.84L159.86-13.84Q159.94-13.13 160.10-13.13L160.10-13.13L160.26-13.21L160.26-13.61L160.10-14.08ZM181.14-32.35L181.14-32.35L181.14-32.27L181.93-32.91L181.78-32.99L181.78-32.99Q180.98-32.51 181.14-32.35ZM164.06-25.31L164.06-25.31L164.14-25.31L164.14-25.31Q164.45-25.39 164.45-25.95L164.45-25.95L164.29-25.95L164.29-25.95Q164.06-25.79 164.06-25.31ZM164.61-15.82L164.53-15.82L164.21-15.50L164.21-15.35L164.45-15.35L164.61-15.58L164.61-15.82ZM169.20-27.61L169.20-27.76L168.88-27.76L168.88-27.45L169.04-27.45L169.20-27.61ZM215.55-41.37L215.55-41.37L218.16-41.37L218.16-41.37Q220.06-41.37 224.33-39.71L224.33-39.71L224.33-39.71Q225.91-39.71 229.32-37.73L229.32-37.73L229.71-37.73L229.71-37.73Q230.58-37.73 233.51-40.90L233.51-40.90L233.51-40.90Q234.14-40.90 235.88-38.68L235.88-38.68L235.88-38.68Q236.67-38.36 237.70-37.18L237.70-37.18L237.70-36.94L237.70-36.94Q233.27-32.04 233.27-31.48L233.27-31.48L233.27-31.48Q231.13-24.28 230.42-23.49L230.42-23.49L230.42-23.49Q228.92-21.91 226.15-20.72L226.15-20.72L226.15-20.72Q222.67-17.24 219.90-17.24L219.90-17.24L217.53-17.17L212.39-17.64L211.36-17.64L211.36-17.64Q210.73-17.64 209.70-12.42L209.70-12.42L210.33-12.26L210.57-12.26L210.57-12.26Q211.83-12.26 213.34-13.21L213.34-13.21L215.16-13.37L218.32-13.37L218.32-13.37Q225.91-13.37 230.82-11.94L230.82-11.94L230.82-11.94Q231.53-11.47 234.30-10.20L234.30-10.20L236.99-8.23L236.99-8.23Q240.15-5.54 240.94-3.40L240.94-3.40L240.94-3.40Q243.79 2.14 243.79 6.01L243.79 6.01L243.79 6.01Q243.79 8.94 239.20 13.29L239.20 13.29L234.38 16.77L234.38 16.77Q230.58 19.14 225.36 19.14L225.36 19.14L223.15 19.46L223.15 19.46Q209.07 19.46 204.08 13.76L204.08 13.76L204.08 13.76Q200.44 11.55 200.44 7.99L200.44 7.99L200.44 7.99Q199.10 5.46 199.10 1.34L199.10 1.34L198.78-0.40L199.10-1.42L199.34-1.42L199.34-1.42Q199.73 0.40 199.97 0.40L199.97 0.40L200.21 0.40L200.21 0.40Q201.31-4.59 201.95-6.25L201.95-6.25L201.95-6.41L201.87-6.41L201.87-6.41Q199.57-2.69 199.57-2.14L199.57-2.14L199.42-2.14L199.42-2.14Q199.10-2.14 199.10-3.01L199.10-3.01L199.10-3.01Q199.18-4.59 201.95-8.46L201.95-8.46L201.95-8.46Q205.03-11.39 205.03-11.79L205.03-11.79L205.03-11.79Q205.82-18.35 206.22-19.93L206.22-19.93L206.22-19.93Q204.16-23.89 204.16-26.42L204.16-26.42L204.08-27.76L204.08-27.76Q204.08-29.11 205.11-32.67L205.11-32.67L205.11-32.67Q205.98-33.54 208.43-36.94L208.43-36.94L208.43-36.94Q212.63-41.37 215.55-41.37ZM212.63-39.39L212.63-39.39L212.63-39.31L212.63-39.31Q215.39-40.03 215.39-40.50L215.39-40.50L215.39-40.58L215.16-40.58L215.16-40.58Q214.05-40.58 212.63-39.39ZM233.98-39.08L233.75-39.08L233.51-38.84L233.51-38.76L233.51-38.76Q233.67-38.52 234.06-38.52L234.06-38.52L234.54-38.52L234.54-38.68L233.98-39.08ZM214.60-37.73L214.60-37.73L214.60-37.42L214.76-37.42L217.13-38.29L217.13-38.68L216.42-38.68L216.42-38.68Q214.60-38.29 214.60-37.73ZM209.86-29.58L209.86-29.58L209.86-29.19L209.86-29.19Q211.12-23.18 211.68-23.18L211.68-23.18L211.68-23.18Q213.50-21.44 214.84-21.44L214.84-21.44L214.84-21.44Q220.85-21.44 223.46-24.13L223.46-24.13L223.46-24.13Q225.44-25.95 226.31-27.92L226.31-27.92L226.31-27.92Q226.94-29.03 226.94-29.58L226.94-29.58L226.94-30.85L226.94-30.85Q226.94-32.12 225.04-34.65L225.04-34.65L225.04-34.65Q220.77-36.54 219.11-36.54L219.11-36.54L219.11-36.54Q215.39-36.54 211.91-33.30L211.91-33.30L211.91-33.30Q209.86-30.77 209.86-29.58ZM233.11-34.33L233.11-34.33L233.11-33.86L233.27-33.86L233.27-33.86Q234.93-35.28 235.56-36.31L235.56-36.31L235.56-36.54L235.49-36.54L235.49-36.54Q234.62-36.54 233.11-34.33ZM210.73-34.49L210.73-34.49L211.04-34.41L211.04-34.41Q211.52-34.41 212.31-35.44L212.31-35.44L212.31-35.75L211.83-35.75L211.83-35.75Q210.73-35.12 210.73-34.49ZM228.13-35.20L228.13-35.20L227.73-35.20L227.73-35.12L227.73-35.12Q228.29-33.62 229.08-33.62L229.08-33.62L229.08-33.62Q229.32-33.62 229.32-33.86L229.32-33.86L229.32-33.86Q229.32-34.41 228.13-35.20ZM205.90-30.93L205.90-30.93L206.14-30.93L206.14-30.93Q206.38-31.09 207.40-32.51L207.40-32.51L207.17-32.67L207.17-32.67Q206.69-32.67 205.90-30.93ZM204.87-28.56L204.87-28.56L204.87-28.56Q204.87-26.82 205.66-25.95L205.66-25.95L205.98-25.95L205.98-25.95Q206.22-25.95 206.22-26.18L206.22-26.18L206.22-26.18Q205.90-29.50 205.43-29.50L205.43-29.50L205.43-29.50Q205.03-29.50 204.87-28.56ZM225.60-24.21L225.60-24.21L225.60-24.13L226.07-24.13L226.07-24.13Q227.50-24.13 227.89-27.37L227.89-27.37L227.89-27.76L227.81-27.92L227.58-27.92L227.58-27.92Q225.60-24.76 225.60-24.21ZM208.91-27.61L208.91-27.61L208.75-27.37L208.75-27.37Q208.75-26.02 209.62-24.92L209.62-24.92L209.70-24.92L209.70-25.23L209.70-25.23Q209.54-27.29 208.91-27.61ZM229.71-24.52L229.71-24.52L229.47-24.52L229.24-24.13L229.24-24.05L229.47-24.05L229.47-24.05Q229.55-24.05 229.71-24.52ZM224.02-22.39L224.02-22.39L224.25-22.39L224.25-22.39Q225.20-22.78 225.76-23.49L225.76-23.49L225.52-23.81L225.52-23.81Q224.17-22.86 224.02-22.39ZM220.69-21.44L220.69-21.44L220.69-21.20L221.17-20.88L221.48-20.88L221.48-20.88Q221.88-20.88 223.07-22.07L223.07-22.07L223.07-22.23L222.35-22.23L222.35-22.23Q221.41-22.23 220.69-21.44ZM206.30-21.75L206.30-21.75L205.98-21.75L205.98-21.52L205.98-21.52Q206.77-20.25 208.35-19.78L208.35-19.78L208.35-19.93L208.35-19.93Q207.64-21.75 206.30-21.75ZM224.25-21.75L223.78-21.75L223.46-21.44L223.46-21.12L223.62-21.12L224.25-21.67L224.25-21.75ZM209.54-21.20L209.54-21.20L209.30-20.96L209.30-20.96Q209.62-20.17 210.33-20.17L210.33-20.17L210.73-20.65L210.73-20.65Q210.73-20.96 209.54-21.20ZM219.67-20.88L219.03-20.88L218.72-20.57L218.72-20.57Q218.72-20.41 220.06-20.25L220.06-20.25L220.69-20.33L220.69-20.33Q220.69-20.65 219.67-20.88L219.67-20.88ZM211.28-20.25L211.28-20.25L211.20-20.17L211.20-19.54L211.52-19.22L212.86-19.22L212.86-19.54L212.86-19.54Q211.52-20.25 211.28-20.25ZM214.76-19.38L213.97-19.38L213.65-19.14L213.65-19.14Q213.65-18.43 216.26-18.43L216.26-18.43L218.56-18.43L218.56-18.43Q219.03-18.43 219.11-18.75L219.11-18.75L219.11-18.75Q217.45-19.38 214.76-19.38L214.76-19.38ZM208.43-18.43L208.20-18.43L207.80-18.11L207.80-17.48L207.80-17.48Q207.80-16.85 208.43-16.69L208.43-16.69L208.75-16.93L208.75-18.19L208.43-18.43ZM221.25-12.10L220.46-12.10L218.72-11.79L218.72-11.71L218.72-11.71Q218.72-11.00 226.86-10.76L226.86-10.76L228.52-10.20L228.68-10.20L228.68-10.20Q228.92-10.20 229.32-10.44L229.32-10.44L231.61-10.36L231.61-10.60L231.61-10.60Q231.21-11.23 229.79-11.23L229.79-11.23L229.00-11.23L229.00-11.23Q228.60-11.23 228.29-11.00L228.29-11.00L226.39-11.79L226.39-11.79Q224.73-12.10 221.25-12.10L221.25-12.10ZM214.13-11.79L214.44-11.79L214.13-11.79ZM210.09-9.57L210.09-9.57L210.09-9.57Q210.09-9.41 212.63-9.25L212.63-9.25L212.63-9.25Q213.65-9.33 213.65-9.57L213.65-9.57L213.65-9.57Q213.26-10.20 212.70-10.44L212.70-10.44L211.83-10.44L211.83-10.44Q210.09-10.20 210.09-9.57ZM225.52-9.02L223.62-9.25L223.54-9.25L223.54-9.18L223.54-9.18Q223.54-8.86 225.44-8.78L225.44-8.78L225.52-8.86L225.52-9.02ZM231.53-9.25L231.21-9.25L230.98-8.94L231.21-8.78L231.53-8.86L231.53-9.25ZM206.61-8.23L206.61-8.23L207.01-7.99L207.56-7.99L207.88-8.38L207.88-8.86L207.64-9.18L207.64-9.18Q206.85-9.18 206.61-8.23ZM203.37-6.72L203.37-6.72L203.37-6.64L203.61-6.41L203.61-6.41Q205.51-6.88 205.51-7.67L205.51-7.67L205.51-8.23L205.35-8.46L205.35-8.46Q204.32-8.07 203.37-6.72ZM232.40-8.15L232.32-8.15L232.24-8.15L232.24-8.15Q232.24-7.59 234.06-7.20L234.06-7.20L234.38-7.28L234.38-7.44L234.38-7.44Q233.82-8.15 232.64-8.15L232.64-8.15L232.40-8.15ZM212.47-7.99L212.31-7.99L211.91-7.67L212.15-7.44L212.70-7.44L212.70-7.83L212.47-7.99ZM223.46-7.83L223.46-7.83L223.07-7.44L223.07-7.44Q223.07-7.12 227.02-6.88L227.02-6.88L227.02-6.88Q230.26-5.93 232.64-4.27L232.64-4.27L233.75-4.19L234.06-4.51L234.06-4.59L234.06-4.59Q233.51-5.70 229.00-7.04L229.00-7.04L229.00-7.04Q224.81-7.83 223.46-7.83ZM218.32-6.72L218.32-6.72L218.32-6.49L217.05-6.25L215.39-6.49L209.54-6.41L209.54-6.41Q205.90-3.08 205.90-1.74L205.90-1.74L205.43-1.19L205.43-1.03L205.43-1.03Q205.98 6.88 207.01 8.78L207.01 8.78L207.01 8.78Q207.09 9.18 209.86 11.15L209.86 11.15L209.86 11.15Q209.86 11.71 214.60 13.05L214.60 13.05L214.60 13.05Q221.56 14.08 226.15 14.08L226.15 14.08L226.15 14.08Q232.08 12.97 234.22 10.76L234.22 10.76L234.22 10.76Q238.10 6.80 238.10 4.27L238.10 4.27L238.10 3.88L238.10 3.88Q238.10 2.53 235.01-1.42L235.01-1.42L235.01-1.42Q234.62-2.53 232.64-3.56L232.64-3.56L232.64-3.56Q229.16-5.85 225.60-6.41L225.60-6.41L220.69-6.49L220.69-6.96L220.69-7.04L219.74-7.04L219.74-7.04Q218.64-7.04 218.32-6.72ZM235.33-6.64L235.33-6.64L234.77-6.64L234.77-6.49L237.86-3.72L238.02-3.72L238.02-3.88L238.02-3.88Q236.91-6.09 235.33-6.64ZM205.90-4.98L205.90-4.98L205.90-4.75L206.14-4.75L207.09-5.06L207.09-5.38L206.93-5.38L206.93-5.38Q205.90-5.30 205.90-4.98ZM204.79-4.19L204.79-4.19L204.79-3.88L205.03-3.88L205.51-4.43L205.51-4.67L205.51-4.67Q205.03-4.67 204.79-4.19ZM202.66-2.21L202.66-2.21L202.74-1.82L202.90-1.82L202.90-1.82Q203.29-1.82 203.84-4.19L203.84-4.19L203.69-4.19L203.69-4.19Q202.66-3.40 202.66-2.21ZM234.69-3.88L234.69-3.88L234.38-3.88L234.38-3.88Q234.38-3.48 236.67-0.71L236.67-0.71L236.67-0.63L236.83-0.63L236.83-0.95L236.83-0.95Q235.80-3.88 234.69-3.88ZM241.81 2.29L241.81 1.98L241.50 1.98L241.50 2.14L241.73 2.45L241.81 2.29ZM240.31 2.69L239.99 2.53L239.60 2.53L239.60 2.69L239.84 3.01L239.99 3.01L240.31 2.69ZM200.21 3.24L199.97 3.24L199.81 3.32L199.81 3.88L200.13 4.11L200.21 4.11L200.21 3.24ZM241.26 4.75L241.26 4.75L241.26 4.90L241.26 4.90Q241.26 5.62 241.58 5.70L241.58 5.70L241.73 5.70L241.73 5.70Q242.37 4.59 242.37 3.32L242.37 3.32L242.29 3.24L242.05 3.24L242.05 3.24Q241.26 3.80 241.26 4.75ZM204.64 3.48L204.48 3.48L204.32 3.72L204.16 5.30L204.16 5.30Q204.24 6.96 204.64 6.96L204.64 6.96L204.79 6.96L204.79 6.96Q205.03 6.80 205.03 6.41L205.03 6.41L205.03 5.38L205.03 5.38Q205.03 3.48 204.64 3.48L204.64 3.48ZM200.76 5.06L200.36 4.67L200.21 4.67L200.21 4.90L200.21 4.90Q200.29 5.46 200.52 5.46L200.52 5.46L200.76 5.30L200.76 5.06ZM236.28 10.13L236.28 10.13L236.28 10.28L236.51 10.44L236.51 10.44Q238.49 9.89 238.49 8.38L238.49 8.38L238.49 7.83L238.25 7.83L238.25 7.83Q236.28 9.33 236.28 10.13ZM203.69 9.73L203.69 9.73L203.37 10.13L203.37 10.13Q203.61 10.68 203.84 10.68L203.84 10.68L204.16 10.28L204.16 10.28Q204.16 9.97 203.69 9.73ZM206.93 11.23L206.93 11.23L206.77 11.23L206.77 11.47L207.09 11.79L207.56 11.79L207.56 11.55L207.56 11.55Q207.48 11.23 206.93 11.23ZM206.30 11.79L205.82 11.79L205.58 12.10L205.58 12.26L206.30 12.26L206.30 11.79ZM225.83 15.50L225.83 15.50L225.83 15.50Q216.11 14.87 214.84 14.40L214.84 14.40L212.70 14.24L212.70 14.40L212.70 14.40Q213.73 15.19 215.39 15.42L215.39 15.42L217.77 15.35L218.32 15.74L218.40 15.66L218.56 15.66L218.56 15.66Q220.69 16.06 223.07 16.06L223.07 16.06L224.81 16.06L224.81 16.06Q228.29 16.06 229.63 15.19L229.63 15.19L229.63 15.19Q232.95 14.00 232.95 13.84L232.95 13.84L232.95 13.76L232.95 13.76Q228.05 14.79 225.83 15.50ZM229.47 18.11L229.47 18.11L229.71 18.11L229.71 18.11Q230.34 18.11 233.59 16.22L233.59 16.22L233.59 16.06L233.27 16.06L233.27 16.06Q229.47 16.93 229.47 18.11ZM227.26 17.80L227.26 17.80L227.26 17.96L227.58 17.96L227.58 17.96Q229.00 17.72 229.00 17.01L229.00 17.01L228.68 17.01L228.68 17.01Q227.58 17.40 227.26 17.80ZM215.39 17.48L215.55 17.48L215.16 17.17L215.08 17.24L215.08 17.32L215.39 17.48ZM216.74 17.72L216.74 17.72L216.42 17.72L216.42 17.80L216.42 17.80Q216.50 18.11 217.29 18.11L217.29 18.11L218.16 18.11L218.16 18.11Q218.16 17.72 216.74 17.72ZM223.62 17.72L223.15 17.72L222.99 17.96L222.99 18.11L222.99 18.11Q223.07 18.43 223.54 18.43L223.54 18.43L224.02 18.43L225.04 18.19L225.04 17.96L223.62 17.72ZM274.80-36.86L274.80-36.86L274.80-36.86Q277.88-36.86 280.02-32.51L280.02-32.51L280.02-32.51Q280.42-32.51 281.13-31.48L281.13-31.48L282.16-25.63L282.16-25.63Q281.60-24.68 277.96-24.68L277.96-24.68L277.17-24.68L277.17-24.68Q274.25-25.15 274.25-26.66L274.25-26.66L274.25-26.66Q274.25-27.76 272.43-29.74L272.43-29.74L272.43-29.74Q272.19-30.14 269.02-30.14L269.02-30.14L269.02-30.14Q266.02-30.14 261.75-28.56L261.75-28.56L261.75-28.56Q258.74-25.39 257.79-23.65L257.79-23.65L257.79-23.65Q258.35-10.13 258.19-6.72L258.19-6.72L258.19-6.72Q258.19-6.01 259.14-6.01L259.14-6.01L261.04-6.01L261.04-6.01Q262.30-5.93 262.30-5.54L262.30-5.54L262.30-5.46L262.62-4.43L262.46 0L261.98 0.63L258.27 1.03L257.95 1.03L256.37 1.50L256.37 1.50Q247.27 1.19 247.27 0.79L247.27 0.79L247.27 0.79Q245.69 0.79 245.69-0.63L245.69-0.63L245.69-0.63Q245.53-2.06 245.53-3.56L245.53-3.56L245.53-3.56Q245.53-5.06 248.62-5.54L248.62-5.54L248.62-5.54Q248.62-6.17 250.75-6.17L250.75-6.17L250.99-6.25L250.99-6.41L250.51-28.08L250.51-28.08Q250.51-30.06 249.49-30.06L249.49-30.06L249.01-30.06L249.01-30.06Q248.06-30.06 245.85-29.19L245.85-29.19L245.69-29.35L245.69-29.50L245.69-29.50Q245.69-29.66 246.32-29.90L246.32-29.90L246.32-30.06L246.32-30.06Q245.53-30.06 245.53-34.49L245.53-34.49L245.53-34.49Q245.37-34.49 245.29-35.91L245.29-35.91L245.29-35.91Q248.46-38.36 251.94-38.36L251.94-38.36L253.92-38.36L253.92-38.36Q255.10-38.36 257.95-37.57L257.95-37.57L257.95-37.34L257.95-37.34Q257.24-36.23 257.24-35.75L257.24-35.75L257.24-35.20L257.24-35.20Q263.65-38.05 274.80-36.86ZM254.07-24.92L254.07-24.92L254.07-24.52L254.07-24.52Q254.47-23.73 254.47-22.86L254.47-22.86L254.47-22.86Q254.39-22.54 254.23-19.62L254.23-19.62L254.39-16.45L254.47-16.45L254.47-16.45Q254.71-16.45 255.10-23.81L255.10-23.81L255.10-23.81Q255.26-23.81 255.26-25.39L255.26-25.39L255.26-25.39Q255.18-26.10 254.87-26.10L254.87-26.10L254.71-26.10L254.71-26.10Q254.07-25.71 254.07-24.92ZM249.33-1.03L249.33-1.03L248.30-0.95L248.30-0.79L248.30-0.79Q248.30-0.40 250.59-0.40L250.59-0.40L252.97-0.40L253.52-0.47L253.52-0.47Q253.52-0.87 249.33-1.03ZM263.01-33.46L263.01-33.46L263.01-33.30L263.01-33.30Q263.72-33.30 264.91-35.60L264.91-35.60L264.91-35.99L264.83-35.99L264.83-35.99Q262.78-35.36 263.01-33.46ZM273.22-30.93L273.22-30.93L273.61-30.93L273.61-30.93Q274.01-31.01 275.12-32.83L275.12-32.83L275.12-32.91L275.12-32.91Q275.12-33.06 274.80-33.06L274.80-33.06L274.80-33.06Q273.45-32.43 273.45-31.40L273.45-31.40L273.45-31.40Q273.38-31.40 273.22-30.93ZM255.26-27.76L255.02-29.11L254.71-29.11L254.31-27.45L254.31-27.45Q254.31-27.05 254.79-26.66L254.79-26.66L254.87-26.66L254.87-26.66Q255.10-26.66 255.26-27.76L255.26-27.76ZM266.02-35.20L266.02-35.20L266.41-33.62L267.05-33.62L267.05-35.28L266.81-35.52L266.57-35.52L266.57-35.52Q266.02-35.44 266.02-35.20ZM250.36-2.29L248.77-2.29L248.62-2.14L248.70-1.98L253.05-1.98L253.05-2.21L250.36-2.29ZM247.35-35.28L247.35-35.28L247.35-35.28Q247.98-34.65 248.70-34.65L248.70-34.65L248.77-34.80L248.77-35.36L248.46-35.75L248.46-35.75Q247.35-35.60 247.35-35.28ZM255.34-1.74L255.34-1.74L255.58-1.50L256.76-1.50L257.08-1.82L257.08-1.82Q257.08-1.98 256.68-2.14L256.68-2.14L256.68-2.14Q255.34-1.98 255.34-1.74ZM278.12-33.14L278.12-33.14L277.88-33.14L277.88-32.99L277.88-32.99Q278.52-32.35 278.99-32.35L278.99-32.35L279.23-32.35L279.23-32.51L279.23-32.51Q278.60-33.14 278.12-33.14ZM251.94-36.15L250.99-36.86L250.75-36.86L250.75-36.54L251.23-35.99L251.94-35.99L251.94-36.15ZM248.62-32.19L248.62-32.19L248.62-32.04L248.85-32.04L248.85-32.04Q249.72-32.04 249.80-32.35L249.80-32.35L249.64-32.59L249.49-32.59L249.49-32.59Q248.77-32.59 248.62-32.19ZM269.34-35.91L268.87-35.91L267.92-35.83L267.92-35.75L268.08-35.52L268.87-35.52L268.87-35.52Q269.42-35.52 269.50-35.83L269.50-35.83L269.34-35.91ZM256.53-10.44L256.37-10.44L256.05-10.20L256.05-9.57L256.37-9.57L256.68-9.81L256.68-10.28L256.53-10.44ZM246.88-1.27L246.88-1.82L246.56-2.14L246.40-1.82L246.40-1.50L246.56-1.27L246.88-1.27ZM258.42-31.64L257.95-31.72L257.63-31.64L257.63-31.40L257.95-31.17L258.19-31.17L258.42-31.40L258.42-31.64ZM270.45-35.99L270.45-35.99L270.45-35.83L271.00-35.83L271.32-36.07L271.08-36.31L271.08-36.31Q270.45-36.15 270.45-35.99ZM275.99-35.99L275.67-35.99L275.51-35.83L275.51-35.75L275.67-35.52L275.99-35.52L276.14-35.75L276.14-35.83L275.99-35.99ZM256.68-36.62L256.45-36.78L256.05-36.62L256.05-36.31L256.45-36.31L256.68-36.62ZM256.45-35.36L256.21-35.36L255.89-35.12L255.89-34.96L256.05-34.80L256.45-35.12L256.45-35.36ZM275.43-28.79L275.43-28.79L275.43-28.63L275.59-28.63L275.91-28.87L275.91-29.11L275.83-29.11L275.83-29.11Q275.43-28.87 275.43-28.79ZM272.98-35.75L272.74-35.75L272.43-35.52L272.43-35.44L272.82-35.44L272.98-35.60L272.98-35.75ZM256.37-8.38L256.37-8.70L256.21-8.70L256.21-8.38L256.37-8.38ZM294.42-42.87L294.42-42.87L304.22-43.11L304.22-43.11Q305.49-43.11 309.52-42.00L309.52-42.00L309.52-42.00Q314.11-37.65 314.98-35.20L314.98-35.20L314.98-35.20Q316.72-33.38 317.75-28.00L317.75-28.00L317.75-28.00Q319.02-26.74 319.02-22.39L319.02-22.39L319.10-20.41L318.78-12.58L318.78-12.58Q318.78-10.20 321.71-6.72L321.71-6.72L321.71-6.72Q324.40-4.11 325.19-4.11L325.19-4.11L325.19-3.96L325.19-3.96Q325.19-3.01 322.42-0.95L322.42-0.95L322.42-0.95Q320.36 1.11 319.81 1.11L319.81 1.11L319.73 1.11L319.73 1.11Q318.46 0.95 313.32-3.56L313.32-3.56L313.32-3.56Q303.99 0.08 303.91 0.16L303.91 0.16L303.91 0.16Q300.82 1.11 297.03 1.11L297.03 1.11L296.63 1.11L296.63 1.11Q292.36 0.40 289.35-2.21L289.35-2.21L289.35-2.21Q288.80-2.69 287.06-6.17L287.06-6.17L287.06-6.17Q285.64-7.91 285.64-10.44L285.64-10.44L285.64-12.74L285.64-12.74Q285.64-14.95 286.82-16.85L286.82-16.85L286.82-16.85Q287.85-20.09 290.38-23.02L290.38-23.02L290.38-23.02Q291.65-24.52 292.91-24.92L292.91-24.92L292.91-24.92Q297.03-27.13 301.06-27.13L301.06-27.13L304.62-27.21L305.09-27.21L305.09-27.21Q308.10-27.21 309.37-26.34L309.37-26.34L309.84-26.34L309.84-26.34Q310.24-26.34 310.24-26.66L310.24-26.66L310.24-26.66Q309.37-30.38 307.39-33.78L307.39-33.78L307.39-33.78Q305.65-36.70 300.90-36.70L300.90-36.70L297.66-37.18L297.66-37.18Q293.47-36.31 293.47-35.44L293.47-35.44L293.47-35.44Q291.81-33.30 291.49-30.14L291.49-30.14L291.49-30.14Q291.33-29.74 288.64-29.74L288.64-29.74L288.17-29.58L288.17-29.58Q287.85-29.58 287.38-28.24L287.38-28.24L287.38-28.24Q285.16-28.56 285.16-29.19L285.16-29.19L285.16-29.19Q285.32-29.66 285.71-34.88L285.71-34.88L285.71-34.88Q286.98-38.52 291.73-41.61L291.73-41.61L291.73-41.61Q293.94-42.87 294.42-42.87ZM303.67-41.53L303.28-41.53L303.12-41.29L303.35-40.97L303.83-40.97L303.91-41.13L303.67-41.53ZM309.29-40.90L309.29-40.90L309.13-40.90L309.13-40.74L309.13-40.74Q309.76-40.10 310.24-40.10L310.24-40.10L310.32-40.10L310.32-40.26L310.32-40.26Q309.68-40.90 309.29-40.90ZM296.63-40.50L296.63-40.50L296.63-40.26L296.63-40.26Q296.71-40.03 297.42-40.03L297.42-40.03L297.42-40.03Q298.13-40.03 299.40-40.50L299.40-40.50L299.40-40.82L299.08-40.82L299.08-40.82Q297.34-40.82 296.63-40.50ZM289.51-37.97L289.51-37.97L289.51-37.81L289.59-37.81L289.59-37.81Q290.30-37.81 291.73-39.31L291.73-39.31L291.73-39.55L291.65-39.55L291.65-39.55Q290.86-39.55 289.51-37.97ZM301.14-38.52L300.51-38.52L300.11-38.21L300.35-37.81L301.38-37.81L301.61-38.05L301.14-38.52ZM289.04-31.96L288.88-32.12L288.64-31.96L288.64-30.77L288.72-30.77L288.72-30.77Q289.04-30.85 289.04-31.32L289.04-31.32L289.04-31.96ZM317.59-25.79L317.59-25.79L317.51-25.79L317.51-25.63L317.51-25.63Q317.67-25.00 317.83-25.00L317.83-25.00L317.91-25.39L317.91-25.39Q317.75-25.79 317.59-25.79ZM315.85-23.02L315.77-23.02L315.54-22.86L315.54-22.62L315.54-22.62Q315.85-21.44 316.17-21.44L316.17-21.44L316.33-21.44L316.33-21.44Q316.33-22.46 315.85-23.02L315.85-23.02ZM292.68-22.54L292.60-22.54L291.73-22.15L291.73-21.75L291.88-21.75L291.88-21.75Q292.44-21.75 292.68-22.39L292.68-22.39L292.68-22.54ZM291.73-15.03L291.73-15.03L291.73-15.03Q292.28-10.28 293.07-10.28L293.07-10.28L293.86-9.25L293.86-9.18L293.15-9.25L293.15-9.02L293.15-9.02Q294.65-6.96 299.32-5.22L299.32-5.22L299.32-5.22Q299.87-4.90 300.90-4.75L300.90-4.75L300.90-4.75Q302.33-4.75 311.82-9.41L311.82-9.41L311.82-9.41Q312.45-9.81 312.45-10.28L312.45-10.28L312.45-10.68L312.45-10.68Q311.74-13.92 311.26-18.27L311.26-18.27L311.11-18.35L311.11-18.35Q311.11-19.22 309.37-19.78L309.37-19.78L309.37-19.78Q303.51-21.44 301.38-21.44L301.38-21.44L301.38-21.44Q295.37-20.09 293.15-17.40L293.15-17.40L293.15-17.40Q291.73-15.98 291.73-15.03ZM315.54-20.09L315.54-20.17L315.30-20.33L315.30-20.09L315.54-20.09ZM315.85-18.35L315.85-18.67L315.38-18.67L315.38-18.35L315.62-18.11L315.85-18.35ZM313.40-16.69L313.32-16.69L313.08-16.45L313.32-16.14L313.64-16.22L313.64-16.45L313.40-16.69ZM316.17-16.45L316.17-16.45L315.93-16.45L315.93-16.37L315.93-16.37Q316.09-13.37 316.56-13.37L316.56-13.37L316.72-13.53L316.72-13.68L316.72-13.68Q316.72-15.35 316.17-16.45ZM313.40-13.92L313.08-13.92L313.00-13.84L313.00-13.37L313.24-13.05L313.32-13.05L313.64-13.37L313.64-13.84L313.40-13.92ZM319.81-6.49L319.81-6.49L319.57-6.49L319.57-6.01L319.57-6.01Q319.89-4.98 320.28-4.98L320.28-4.98L320.52-4.98L320.52-5.22L320.52-5.22Q320.20-6.49 319.81-6.49ZM290.86-6.25L290.70-6.25L290.54-6.09L290.54-6.01L290.70-5.85L291.09-5.85L291.09-6.01L290.86-6.25ZM317.75-5.22L317.36-5.22L317.12-4.98L317.12-4.98Q317.36-4.43 317.75-4.27L317.75-4.27L317.83-4.27L318.15-4.59L318.15-4.75L317.75-5.22ZM305.89-4.11L305.89-4.11L305.89-3.96L306.20-3.96L306.20-3.96Q307.31-3.96 309.13-4.90L309.13-4.90L309.13-4.98L308.81-4.98L308.81-4.98Q306.12-4.67 305.89-4.11ZM319.41-3.88L319.10-3.88L318.94-3.56L318.94-3.40L319.25-3.08L319.57-3.08L319.81-3.24L319.81-3.40L319.41-3.88ZM300.59-3.24L299.56-3.24L299.32-3.01L299.32-3.01Q299.48-2.61 299.95-2.61L299.95-2.61L299.95-2.61Q300.82-2.77 300.82-3.01L300.82-3.01L300.82-3.08L300.59-3.24ZM291.17-2.14L290.94-2.14L290.70-1.82L290.70-1.82Q291.01-1.11 294.65 0L294.65 0L294.65 0Q295.84 0.55 297.82 0.55L297.82 0.55L297.82 0.47L297.82 0.47Q297.82 0.24 294.81-0.40L294.81-0.40L294.81-0.40Q293.07-0.87 291.17-2.14L291.17-2.14ZM339.58-40.26L339.58-40.26L339.58-40.26Q340.45-40.10 340.45-40.03L340.45-40.03L340.14-39.47L340.14-39.39L340.29-39.39L344.33-39.47L344.33-39.47Q351.21-39.47 353.50-35.99L353.50-35.99L353.50-35.99Q355.32-33.62 355.48-33.22L355.48-33.22L355.80-33.14L355.80-33.14Q356.59-33.14 364.74-37.42L364.74-37.42L364.74-37.42Q365.84-37.97 366.56-37.97L366.56-37.97L366.56-37.97Q369.80-37.97 373.28-35.52L373.28-35.52L373.28-35.52Q380.00-30.22 380.00-26.50L380.00-26.50L380.00-26.50Q380.72-25.00 382.46-10.28L382.46-10.28L382.46-8.15L382.46-8.15Q382.46-7.44 382.85-7.28L382.85-7.28L383.17-7.28L383.17-7.28Q383.80-7.28 385.70-7.91L385.70-7.91L385.70-7.91Q386.96-7.91 386.96-3.24L386.96-3.24L386.96-3.24Q387.12-0.87 387.12 0.32L387.12 0.32L386.02 0.32L386.02 0.32Q382.69 0.87 380.16 0.87L380.16 0.87L377.63 0.55L373.04 0.71L372.25 0.71L372.25 0.71Q372.09 0.71 372.09 0.08L372.09 0.08L371.07-0.95L371.07-1.03L371.30-1.82L371.30-1.98L370.91-4.11L370.91-5.14L370.91-5.14Q370.91-6.17 372.49-6.17L372.49-6.17L372.49-6.17Q375.34-5.85 374.86-8.31L374.86-8.31L374.86-8.31Q374.78-14.48 375.34-17.56L375.34-17.56L375.34-17.72L375.18-22.46L375.18-22.46Q375.18-23.73 373.04-25.39L373.04-25.39L372.41-25.55L371.86-25.55L371.22-25.23L371.22-25.23Q371.07-25.23 371.07-25.95L371.07-25.95L371.07-25.95Q369.25-28.32 365.21-28.32L365.21-28.32L365.21-28.32Q360.07-27.84 359.04-25.23L359.04-25.23L359.04-25.23Q358.88-24.52 358.73-21.52L358.73-21.52L358.88-19.70L358.88-14.00L358.80-11.71L358.80-11.71Q358.80-8.15 360.78-7.59L360.78-7.59L360.78-7.59Q361.65-7.44 361.65-7.04L361.65-7.04L361.65-7.04Q360.78-3.08 360.54-2.69L360.54-2.69L358.57-2.29L351.84-2.85L351.05-2.69L351.05-2.69Q349.71-2.69 349.71-6.72L349.71-6.72L349.71-7.04L349.71-7.04Q349.71-7.51 352.08-8.23L352.08-8.23L352.08-8.23Q352.71-8.23 352.71-8.86L352.71-8.86L352.71-8.86Q352.32-10.84 352.32-13.29L352.32-13.29L352.48-21.99L352.48-21.99Q352.00-23.73 352.00-24.76L352.00-24.76L352.00-24.76Q352.08-26.74 352.56-26.74L352.56-26.74L353.27-26.34L353.35-26.34L353.35-26.50L353.35-26.50Q353.35-28.24 347.97-31.48L347.97-31.48L347.97-31.48Q346.54-32.04 345.12-32.04L345.12-32.04L345.12-32.04Q342.91-32.04 340.14-30.06L340.14-30.06L340.06-29.66L340.06-23.26L340.29-6.72L340.61-6.41L340.93-6.41L340.93-6.41Q341.17-6.41 341.24-6.96L341.24-6.96L341.40-6.96L341.40-6.96Q343.54-6.96 344.01-5.85L344.01-5.85L344.01-5.22L344.09-3.32L344.09-3.32Q344.25-0.08 342.43-0.08L342.43-0.08L342.43-0.08Q341.96 0.08 338.16 0.24L338.16 0.24L327.88-0.40L327.88-0.40Q327.08-0.40 326.37-5.22L326.37-5.22L326.37-5.30L326.37-5.30Q326.37-6.01 329.62-6.96L329.62-6.96L329.62-6.96Q329.62-7.51 332.78-7.99L332.78-7.99L332.78-7.99Q333.33-8.07 333.33-8.78L333.33-8.78L333.89-27.29L334.05-31.64L334.05-31.64Q334.05-32.35 332.54-32.35L332.54-32.35L332.54-32.35Q331.04-32.35 328.83-31.96L328.83-31.96L328.83-31.96Q327.48-32.67 327.48-33.46L327.48-33.46L327.48-33.46Q328.11-33.86 328.11-34.73L328.11-34.73L328.11-35.36L328.11-35.36Q327.72-37.42 327.16-37.42L327.16-37.42L327.08-37.49L327.08-37.65L327.08-37.65Q327.56-37.97 328.19-39.16L328.19-39.16L328.19-39.16Q333.49-39.87 339.58-40.26ZM336.18-33.06L336.18-33.06L336.18-29.11L336.18-29.11Q336.18-27.92 335.71-26.74L335.71-26.74L336.26-25.95L336.10-24.68L336.10-23.89L336.26-23.73L336.34-23.73L336.34-23.73Q336.97-23.73 337.05-32.35L337.05-32.35L337.05-32.43L337.05-32.43Q337.05-33.38 336.50-33.70L336.50-33.70L336.50-33.70Q336.18-33.62 336.18-33.06ZM328.90-34.57L328.90-34.57L328.90-34.57Q328.90-33.78 330.33-33.78L330.33-33.78L330.33-33.78Q332.15-33.78 334.05-34.96L334.05-34.96L334.05-35.20L333.73-35.20L333.73-35.20Q328.90-35.20 328.90-34.57ZM342.04-35.52L342.04-35.52L342.04-35.44L346.15-35.91L346.15-35.91Q347.89-35.91 349.71-34.33L349.71-34.33L349.95-34.33L349.95-34.65L349.95-34.65Q349.47-36.31 348.28-36.31L348.28-36.31L347.57-36.31L347.57-36.31Q342.11-36.31 342.04-35.52ZM368.38-36.86L368.38-36.86Q367.90-36.62 367.90-36.47L367.90-36.47L367.90-36.47Q367.90-36.31 369.25-35.91L369.25-35.91L369.25-35.91Q369.96-34.88 370.99-34.88L370.99-34.88L372.49-34.88L372.49-35.12L372.49-35.12Q372.49-35.91 368.46-36.86L368.46-36.86L368.38-36.86ZM331.75-4.03L331.44-4.03L331.20-3.80L331.20-3.80Q331.20-2.77 333.97-3.40L333.97-3.40L333.97-3.40Q334.28-2.85 334.84-2.85L334.84-2.85L334.84-2.85Q336.81-2.93 338.95-3.24L338.95-3.24L338.95-3.56L336.89-3.64L336.89-3.64Q334.92-3.48 332.15-3.80L332.15-3.80L331.75-4.03ZM344.01-34.33L344.01-34.33L344.01-34.33Q344.01-34.09 346.23-33.54L346.23-33.54L346.23-33.54Q347.73-32.75 348.84-32.75L348.84-32.75L348.92-32.75L349.08-32.99L349.08-32.99Q347.26-34.57 345.04-34.57L345.04-34.57L344.57-34.57L344.57-34.57Q344.01-34.49 344.01-34.33ZM371.46-30.30L369.96-30.30L369.72-30.06L369.72-30.06Q371.46-28.16 372.96-28.16L372.96-28.16L373.20-28.32L373.20-28.71L373.20-28.71Q372.65-29.43 371.46-30.30L371.46-30.30ZM366.48-33.14L366.48-33.14L366.48-32.99L366.48-32.99Q366.71-32.59 366.95-32.59L366.95-32.59L366.95-32.59Q370.20-32.59 370.43-32.99L370.43-32.99L370.43-32.99Q370.20-33.70 367.90-33.70L367.90-33.70L367.74-33.70L367.74-33.70Q366.56-33.70 366.48-33.14ZM377.55-18.11L377.16-18.51L376.68-18.51L376.52-18.19L376.76-15.19L376.76-14.95L377.00-14.63L377.16-14.63L377.55-15.03L377.55-18.11ZM328.67-5.54L328.59-5.62L328.35-5.62L328.35-5.62Q328.35-4.90 327.72-4.27L327.72-4.27L327.72-4.27Q328.27-1.58 328.90-1.58L328.90-1.58L329.14-1.58L328.67-5.54ZM353.98-19.46L353.98-19.46L353.82-18.75L353.82-15.82L353.98-14.40L354.22-14.40L354.22-14.40Q354.53-15.11 354.53-16.37L354.53-16.37L354.53-16.37Q354.38-19.46 353.98-19.46ZM339.82-37.73L339.82-37.73L339.82-37.65L340.14-37.49L345.28-38.44L345.28-38.60L342.91-38.60L342.91-38.60Q339.82-38.60 339.82-37.73ZM356.43-31.88L356.43-31.88L356.43-31.17L356.75-30.93L356.75-30.93Q357.70-30.93 359.20-32.35L359.20-32.35L357.22-32.35L357.22-32.35Q356.67-32.35 356.43-31.88ZM338.48-30.06L338.48-30.06L338.32-30.06L338.32-30.06Q338.16-28.79 338.16-27.37L338.16-27.37L338.16-26.34L338.32-25.95L338.32-25.95Q338.87-25.95 338.87-28.08L338.87-28.08L338.87-28.71L338.87-28.71Q338.87-30.06 338.48-30.06ZM374.15-31.88L374.15-31.88L373.91-31.88L373.91-31.40L373.91-31.40Q374.23-30.45 375.42-29.50L375.42-29.50L375.42-29.27L375.97-29.27L375.97-29.43L375.97-29.43Q375.97-30.30 374.15-31.88ZM361.89-34.33L361.89-34.33L361.89-34.17L361.97-34.17L361.97-34.17Q362.44-34.17 364.66-35.99L364.66-35.99L364.66-36.31L364.66-36.31Q361.89-35.44 361.89-34.33ZM377.31-4.35L377.31-4.35L377.31-4.11L378.34-4.11L378.34-4.11Q380.64-4.11 380.64-4.59L380.64-4.59L380.32-4.75L380.16-4.75L380.16-4.75Q377.31-4.75 377.31-4.35ZM374.15-3.16L374.15-3.16L374.15-3.01L376.21-3.01L376.21-3.01Q377.00-3.01 377.16-3.40L377.16-3.40L377.16-3.40Q377.08-3.72 376.52-3.72L376.52-3.72L375.34-3.72L375.34-3.72Q374.94-3.72 374.15-3.16ZM376.92-23.81L376.92-23.81L377.87-22.39L378.18-22.39L378.18-22.94L378.18-23.57L378.18-23.57Q378.18-24.05 377.95-24.21L377.95-24.21L377.24-24.21L377.24-24.21Q377.08-24.21 376.92-23.81ZM336.18-8.86L336.18-8.86L334.52-8.86L334.52-8.86Q334.60-7.59 334.84-7.59L334.84-7.59L335.07-7.59L335.07-7.59Q336.10-7.59 336.18-8.86ZM332.38-36.86L330.64-36.86L329.14-36.70L329.14-36.47L329.38-36.31L329.38-36.31Q332.62-36.31 332.62-36.62L332.62-36.62L332.38-36.86ZM329.77-6.01L329.77-6.01L329.85-4.83L330.01-4.83L330.01-4.83Q330.57-5.62 331.59-6.01L331.59-6.01L331.59-6.25L330.88-6.41L330.09-6.41L330.09-6.41Q329.77-6.41 329.77-6.01ZM340.14-3.88L340.14-3.88L339.82-3.64L339.82-3.64Q339.82-2.93 341.32-2.85L341.32-2.85L341.72-3.16L341.72-3.48L341.72-3.48Q341.72-3.88 340.14-3.88ZM338.95-7.20L338.95-7.20L337.37-8.54L337.37-8.38L337.37-8.38Q337.37-6.80 338.32-6.80L338.32-6.80L338.79-6.80L338.79-6.80Q338.95-6.80 338.95-7.20ZM351.92-32.99L351.92-32.99L351.84-32.99L351.84-32.91L351.84-32.91Q351.84-32.12 353.27-31.48L353.27-31.48L353.27-32.35L353.27-32.35Q353.27-32.51 351.92-32.99ZM375.73-27.29L375.73-27.29L375.57-27.29L375.57-27.13L375.57-27.13Q376.21-25.00 376.76-25.00L376.76-25.00L376.76-25.15L376.76-25.15Q376.76-26.26 375.73-27.29ZM348.28-37.73L348.28-37.73L347.81-37.73L347.81-37.49L347.81-37.49Q349.63-37.10 350.10-37.10L350.10-37.10L350.26-37.10L350.26-37.26L350.26-37.26Q350.26-37.73 348.28-37.73ZM351.69-34.88L351.69-34.88L351.53-34.88L351.53-34.57L351.53-34.57Q352.24-33.46 352.79-33.14L352.79-33.14L353.03-33.14L353.03-33.22L353.03-33.22Q352.63-34.17 351.69-34.88ZM341.56-4.59L340.93-4.59L338.87-4.43L338.87-4.11L340.37-4.11L341.56-4.27L341.56-4.59ZM359.67-33.38L359.67-33.38L359.75-33.22L360.23-33.22L360.23-33.22Q361.26-33.30 361.26-33.93L361.26-33.93L361.02-34.01L361.02-34.01Q359.83-33.78 359.67-33.38ZM379.61-7.12L379.61-7.12L379.61-6.96L379.85-6.72L380.08-6.72L380.40-7.12L380.40-7.51L380.24-7.83L379.92-7.83L379.92-7.83Q379.61-7.59 379.61-7.12ZM334.68-5.46L334.05-5.46L333.41-5.30L333.41-5.06L334.05-4.98L334.68-4.98L335.15-5.06L335.15-5.30L334.68-5.46ZM381.74-4.43L381.74-4.43L381.82-4.35L382.14-4.35L382.14-4.35Q382.54-4.35 382.69-4.59L382.69-4.59L382.69-4.67L382.69-4.67Q382.69-5.30 382.46-5.30L382.46-5.30L382.46-5.30Q382.14-5.30 381.74-4.43ZM332.31-38.60L332.31-38.60L332.54-38.29L332.54-38.29Q334.13-38.44 334.13-38.76L334.13-38.76L333.73-38.84L333.73-38.84Q332.31-38.76 332.31-38.60ZM384.51-6.09L384.35-6.09L384.04-5.85L384.04-4.90L384.35-4.59L384.35-4.59Q384.59-4.59 384.59-5.85L384.59-5.85L384.51-6.09ZM339.50-1.58L339.50-1.58L339.50-1.42L339.74-1.27L339.74-1.27Q340.45-1.58 340.85-2.06L340.85-2.06L340.85-2.21L340.85-2.21Q340.14-2.21 339.50-1.58ZM356.51-27.37L356.51-27.37L356.43-27.13L356.43-27.13Q356.59-26.50 356.75-26.50L356.75-26.50L356.83-26.50L357.30-26.89L357.30-27.13L357.30-27.13Q357.22-27.37 356.51-27.37ZM339.74-33.22L339.74-33.22L339.74-33.06L340.06-33.06L340.06-33.06Q341.09-33.14 341.09-33.46L341.09-33.46L341.09-33.70L340.45-33.70L340.45-33.70Q339.74-33.54 339.74-33.22ZM356.83-7.83L356.27-7.83L355.96-7.44L356.19-7.20L356.75-7.20L357.06-7.51L357.06-7.59L356.83-7.83ZM368.06-35.67L368.06-35.67L367.58-35.67L367.58-35.44L367.58-35.44Q367.58-35.20 368.38-35.20L368.38-35.20L368.69-35.20L368.85-35.36L368.85-35.36Q368.77-35.67 368.06-35.67ZM338.55-23.89L338.48-23.89L338.32-23.73L338.32-23.26L338.63-22.94L338.79-22.94L338.95-23.10L338.95-23.49L338.55-23.89ZM339.03-39.39L338.48-39.39L338.32-39.16L338.32-38.92L338.55-38.68L338.55-38.68Q339.11-38.68 339.11-39.23L339.11-39.23L339.03-39.39ZM350.58-34.49L350.58-34.49L350.42-34.33L350.42-34.33Q350.42-33.54 351.13-33.54L351.13-33.54L351.13-33.70L351.13-33.70Q351.13-34.25 350.58-34.49ZM354.22-28.95L354.22-28.95L354.06-28.95L354.06-28.95Q354.06-28.32 354.69-28.32L354.69-28.32L354.85-28.32L354.85-28.63L354.85-28.63Q354.77-28.95 354.22-28.95ZM355.01-4.43L354.53-4.43L354.30-4.11L354.30-3.96L354.77-3.88L355.25-3.96L355.25-4.11L355.01-4.43ZM342.51-5.77L342.27-6.01L341.72-6.01L341.72-5.54L342.27-5.46L342.51-5.77ZM330.57-3.16L330.33-3.40L330.17-3.40L330.17-2.85L330.33-2.61L330.57-2.61L330.57-3.16ZM377.16-11.71L377.00-11.71L376.76-11.47L376.76-11.15L376.92-11.00L377.16-11.00L377.16-11.71ZM338.63-37.89L338.32-37.89L338.16-37.65L338.16-37.49L338.32-37.34L338.48-37.34L338.79-37.49L338.63-37.89ZM377.55-9.25L377.31-9.57L377.00-9.18L377.00-9.10L377.31-8.78L377.55-9.10L377.55-9.25ZM340.06-35.36L340.06-35.52L339.74-35.67L339.58-35.36L339.74-35.20L339.82-35.20L340.06-35.36ZM356.75-9.49L356.59-9.49L356.43-9.25L356.43-9.02L356.75-8.94L356.83-9.25L356.75-9.49ZM336.58-23.10L336.34-23.26L336.26-23.26L336.26-22.94L336.50-22.70L336.58-22.70L336.58-23.10ZM336.02-35.91L335.71-35.91L335.55-35.67L335.55-35.52L335.71-35.52L336.02-35.75L336.02-35.91ZM338.48-4.03L338.48-4.03L338.63-4.03L338.63-4.11L338.63-4.11Q338.55-4.11 338.48-4.03Z"></path></g></g><style>text {
  font-size: 64px;
  font-family: Arial Black;
  dominant-baseline: central;
  text-anchor: middle;
}</style></svg>